solid ascii
 facet normal 0 0 1
  outer loop
   vertex -0.5 -1.5 3.1
   vertex -0.5 -0.5 3.1
   vertex -1 -1 3.1
  endloop
 endfacet
 facet normal 0 -0 1
  outer loop
   vertex -1.5 -0.5 3.1
   vertex -1 -1 3.1
   vertex -0.5 -0.5 3.1
  endloop
 endfacet
 facet normal 0 0 1
  outer loop
   vertex -0.5 -1.5 3.1
   vertex 0.5 -1.5 3.1
   vertex -0.5 -0.5 3.1
  endloop
 endfacet
 facet normal -0 0 1
  outer loop
   vertex 0.5 -0.5 3.1
   vertex -0.5 -0.5 3.1
   vertex 0.5 -1.5 3.1
  endloop
 endfacet
 facet normal 0 0 1
  outer loop
   vertex 0.5 -1.5 3.1
   vertex 1 -1 3.1
   vertex 0.5 -0.5 3.1
  endloop
 endfacet
 facet normal -0 0 1
  outer loop
   vertex 1.5 -0.5 3.1
   vertex 0.5 -0.5 3.1
   vertex 1 -1 3.1
  endloop
 endfacet
 facet normal 0 0 1
  outer loop
   vertex -1.5 -0.5 3.1
   vertex -0.5 -0.5 3.1
   vertex -1.5 0.5 3.1
  endloop
 endfacet
 facet normal -0 0 1
  outer loop
   vertex -0.5 0.5 3.1
   vertex -1.5 0.5 3.1
   vertex -0.5 -0.5 3.1
  endloop
 endfacet
 facet normal 0 0 1
  outer loop
   vertex -0.5 -0.5 3.1
   vertex 0.5 -0.5 3.1
   vertex -0.5 0.5 3.1
  endloop
 endfacet
 facet normal -0 0 1
  outer loop
   vertex 0.5 0.5 3.1
   vertex -0.5 0.5 3.1
   vertex 0.5 -0.5 3.1
  endloop
 endfacet
 facet normal 0 0 1
  outer loop
   vertex 0.5 -0.5 3.1
   vertex 1.5 -0.5 3.1
   vertex 0.5 0.5 3.1
  endloop
 endfacet
 facet normal -0 0 1
  outer loop
   vertex 1.5 0.5 3.1
   vertex 0.5 0.5 3.1
   vertex 1.5 -0.5 3.1
  endloop
 endfacet
 facet normal 0 0 1
  outer loop
   vertex -1.5 0.5 3.1
   vertex -0.5 0.5 3.1
   vertex -1 1 3.1
  endloop
 endfacet
 facet normal -0 0 1
  outer loop
   vertex -0.5 1.5 3.1
   vertex -1 1 3.1
   vertex -0.5 0.5 3.1
  endloop
 endfacet
 facet normal 0 0 1
  outer loop
   vertex -0.5 0.5 3.1
   vertex 0.5 0.5 3.1
   vertex -0.5 1.5 3.1
  endloop
 endfacet
 facet normal -0 0 1
  outer loop
   vertex 0.5 1.5 3.1
   vertex -0.5 1.5 3.1
   vertex 0.5 0.5 3.1
  endloop
 endfacet
 facet normal 0 0 1
  outer loop
   vertex 0.5 1.5 3.1
   vertex 0.5 0.5 3.1
   vertex 1 1 3.1
  endloop
 endfacet
 facet normal 0 0 1
  outer loop
   vertex 1.5 0.5 3.1
   vertex 1 1 3.1
   vertex 0.5 0.5 3.1
  endloop
 endfacet
endsolid
