solid ascii
  facet normal 0.000000e+000 0.000000e+000 -1.000000e+000
    outer loop
      vertex   6.500000e+001 -1.125833e+002 4.000000e+002
      vertex   1.138226e+002 -6.280464e+001 4.000000e+002
      vertex   1.086134e+002 -7.143617e+001 4.000000e+002
    endloop
  endfacet
  facet normal 0.000000e+000 0.000000e+000 -1.000000e+000
    outer loop
      vertex   6.500000e+001 -1.125833e+002 4.000000e+002
      vertex   1.183472e+002 -5.379539e+001 4.000000e+002
      vertex   1.138226e+002 -6.280464e+001 4.000000e+002
    endloop
  endfacet
  facet normal 0.000000e+000 0.000000e+000 -1.000000e+000
    outer loop
      vertex   -2.520873e+000 1.299756e+002 4.000000e+002
      vertex   1.252382e+002 3.486244e+001 4.000000e+002
      vertex   1.275632e+002 2.505259e+001 4.000000e+002
    endloop
  endfacet
  facet normal 0.000000e+000 0.000000e+000 -1.000000e+000
    outer loop
      vertex   1.299022e+002 5.040798e+000 4.000000e+002
      vertex   -7.763062e+001 1.042760e+002 4.000000e+002
      vertex   -6.931658e+001 1.099782e+002 4.000000e+002
    endloop
  endfacet
  facet normal 0.000000e+000 0.000000e+000 -1.000000e+000
    outer loop
      vertex   1.252382e+002 -3.486244e+001 4.000000e+002
      vertex   4.682310e+001 -1.212749e+002 4.000000e+002
      vertex   3.728442e+001 -1.245386e+002 4.000000e+002
    endloop
  endfacet
  facet normal 0.000000e+000 0.000000e+000 -1.000000e+000
    outer loop
      vertex   1.252382e+002 -3.486244e+001 4.000000e+002
      vertex   6.500000e+001 -1.125833e+002 4.000000e+002
      vertex   5.608019e+001 -1.172818e+002 4.000000e+002
    endloop
  endfacet
  facet normal 0.000000e+000 0.000000e+000 -1.000000e+000
    outer loop
      vertex   6.500000e+001 -1.125833e+002 4.000000e+002
      vertex   8.921141e+001 -9.455857e+001 4.000000e+002
      vertex   8.161558e+001 -1.011874e+002 4.000000e+002
    endloop
  endfacet
  facet normal 0.000000e+000 0.000000e+000 -1.000000e+000
    outer loop
      vertex   6.500000e+001 -1.125833e+002 4.000000e+002
      vertex   1.027510e+002 -7.963807e+001 4.000000e+002
      vertex   9.627072e+001 -8.736102e+001 4.000000e+002
    endloop
  endfacet
  facet normal 0.000000e+000 0.000000e+000 -1.000000e+000
    outer loop
      vertex   6.500000e+001 -1.125833e+002 4.000000e+002
      vertex   1.221600e+002 -4.446262e+001 4.000000e+002
      vertex   1.183472e+002 -5.379539e+001 4.000000e+002
    endloop
  endfacet
  facet normal 0.000000e+000 0.000000e+000 -1.000000e+000
    outer loop
      vertex   -2.520873e+000 1.299756e+002 4.000000e+002
      vertex   1.221600e+002 4.446262e+001 4.000000e+002
      vertex   1.252382e+002 3.486244e+001 4.000000e+002
    endloop
  endfacet
  facet normal 0.000000e+000 0.000000e+000 -1.000000e+000
    outer loop
      vertex   9.627072e+001 8.736102e+001 4.000000e+002
      vertex   7.352889e+001 1.072078e+002 4.000000e+002
      vertex   8.161558e+001 1.011874e+002 4.000000e+002
    endloop
  endfacet
  facet normal 0.000000e+000 0.000000e+000 -1.000000e+000
    outer loop
      vertex   9.627072e+001 8.736102e+001 4.000000e+002
      vertex   2.752150e+001 1.270534e+002 4.000000e+002
      vertex   3.728442e+001 1.245386e+002 4.000000e+002
    endloop
  endfacet
  facet normal 0.000000e+000 0.000000e+000 -1.000000e+000
    outer loop
      vertex   9.627072e+001 8.736102e+001 4.000000e+002
      vertex   7.558828e+000 1.297801e+002 4.000000e+002
      vertex   1.759307e+001 1.288041e+002 4.000000e+002
    endloop
  endfacet
  facet normal 0.000000e+000 0.000000e+000 -1.000000e+000
    outer loop
      vertex   1.299022e+002 5.040798e+000 4.000000e+002
      vertex   -2.257426e+001 1.280250e+002 4.000000e+002
      vertex   -1.258541e+001 1.293894e+002 4.000000e+002
    endloop
  endfacet
  facet normal 0.000000e+000 0.000000e+000 -1.000000e+000
    outer loop
      vertex   1.299022e+002 5.040798e+000 4.000000e+002
      vertex   -8.547778e+001 9.794667e+001 4.000000e+002
      vertex   -7.763062e+001 1.042760e+002 4.000000e+002
    endloop
  endfacet
  facet normal 0.000000e+000 0.000000e+000 -1.000000e+000
    outer loop
      vertex   1.299022e+002 5.040798e+000 4.000000e+002
      vertex   -1.203441e+002 4.916598e+001 4.000000e+002
      vertex   -1.161722e+002 5.834389e+001 4.000000e+002
    endloop
  endfacet
  facet normal 0.000000e+000 0.000000e+000 -1.000000e+000
    outer loop
      vertex   1.299022e+002 5.040798e+000 4.000000e+002
      vertex   -1.296091e+002 1.007401e+001 4.000000e+002
      vertex   -1.284387e+002 2.008744e+001 4.000000e+002
    endloop
  endfacet
  facet normal 0.000000e+000 0.000000e+000 -1.000000e+000
    outer loop
      vertex   1.299022e+002 -5.040798e+000 4.000000e+002
      vertex   -1.113017e+002 -6.717092e+001 4.000000e+002
      vertex   -1.161722e+002 -5.834389e+001 4.000000e+002
    endloop
  endfacet
  facet normal 0.000000e+000 0.000000e+000 -1.000000e+000
    outer loop
      vertex   1.299022e+002 -5.040798e+000 4.000000e+002
      vertex   -9.958578e+001 -8.356239e+001 4.000000e+002
      vertex   -1.057618e+002 -7.559397e+001 4.000000e+002
    endloop
  endfacet
  facet normal 0.000000e+000 0.000000e+000 -1.000000e+000
    outer loop
      vertex   1.299022e+002 -5.040798e+000 4.000000e+002
      vertex   -8.547778e+001 -9.794667e+001 4.000000e+002
      vertex   -9.281087e+001 -9.102826e+001 4.000000e+002
    endloop
  endfacet
  facet normal 0.000000e+000 0.000000e+000 -1.000000e+000
    outer loop
      vertex   1.299022e+002 -5.040798e+000 4.000000e+002
      vertex   -6.058566e+001 -1.150190e+002 4.000000e+002
      vertex   -6.931658e+001 -1.099782e+002 4.000000e+002
    endloop
  endfacet
  facet normal 0.000000e+000 0.000000e+000 -1.000000e+000
    outer loop
      vertex   1.299022e+002 -5.040798e+000 4.000000e+002
      vertex   -4.208541e+001 -1.229993e+002 4.000000e+002
      vertex   -5.149037e+001 -1.193681e+002 4.000000e+002
    endloop
  endfacet
  facet normal -0.000000e+000 0.000000e+000 -1.000000e+000
    outer loop
      vertex   5.608019e+001 -1.172818e+002 4.000000e+002
      vertex   4.682310e+001 -1.212749e+002 4.000000e+002
      vertex   1.252382e+002 -3.486244e+001 4.000000e+002
    endloop
  endfacet
  facet normal 0.000000e+000 0.000000e+000 -1.000000e+000
    outer loop
      vertex   9.627072e+001 -8.736102e+001 4.000000e+002
      vertex   8.921141e+001 -9.455857e+001 4.000000e+002
      vertex   6.500000e+001 -1.125833e+002 4.000000e+002
    endloop
  endfacet
  facet normal 0.000000e+000 0.000000e+000 -1.000000e+000
    outer loop
      vertex   6.500000e+001 -1.125833e+002 4.000000e+002
      vertex   1.252382e+002 -3.486244e+001 4.000000e+002
      vertex   1.221600e+002 -4.446262e+001 4.000000e+002
    endloop
  endfacet
  facet normal -0.000000e+000 -0.000000e+000 -1.000000e+000
    outer loop
      vertex   1.275632e+002 2.505259e+001 4.000000e+002
      vertex   1.291210e+002 1.509208e+001 4.000000e+002
      vertex   -2.520873e+000 1.299756e+002 4.000000e+002
    endloop
  endfacet
  facet normal 0.000000e+000 0.000000e+000 -1.000000e+000
    outer loop
      vertex   -2.520873e+000 1.299756e+002 4.000000e+002
      vertex   1.086134e+002 7.143617e+001 4.000000e+002
      vertex   1.138226e+002 6.280464e+001 4.000000e+002
    endloop
  endfacet
  facet normal 0.000000e+000 0.000000e+000 -1.000000e+000
    outer loop
      vertex   -2.520873e+000 1.299756e+002 4.000000e+002
      vertex   9.627072e+001 8.736102e+001 4.000000e+002
      vertex   1.027510e+002 7.963807e+001 4.000000e+002
    endloop
  endfacet
  facet normal 0.000000e+000 0.000000e+000 -1.000000e+000
    outer loop
      vertex   9.627072e+001 8.736102e+001 4.000000e+002
      vertex   6.500000e+001 1.125833e+002 4.000000e+002
      vertex   7.352889e+001 1.072078e+002 4.000000e+002
    endloop
  endfacet
  facet normal 0.000000e+000 0.000000e+000 -1.000000e+000
    outer loop
      vertex   9.627072e+001 8.736102e+001 4.000000e+002
      vertex   4.682310e+001 1.212749e+002 4.000000e+002
      vertex   5.608019e+001 1.172818e+002 4.000000e+002
    endloop
  endfacet
  facet normal 0.000000e+000 0.000000e+000 -1.000000e+000
    outer loop
      vertex   1.759307e+001 1.288041e+002 4.000000e+002
      vertex   2.752150e+001 1.270534e+002 4.000000e+002
      vertex   9.627072e+001 8.736102e+001 4.000000e+002
    endloop
  endfacet
  facet normal 0.000000e+000 0.000000e+000 -1.000000e+000
    outer loop
      vertex   1.299022e+002 5.040798e+000 4.000000e+002
      vertex   -3.242735e+001 1.258907e+002 4.000000e+002
      vertex   -2.257426e+001 1.280250e+002 4.000000e+002
    endloop
  endfacet
  facet normal 0.000000e+000 0.000000e+000 -1.000000e+000
    outer loop
      vertex   1.299022e+002 5.040798e+000 4.000000e+002
      vertex   -6.058566e+001 1.150190e+002 4.000000e+002
      vertex   -5.149037e+001 1.193681e+002 4.000000e+002
    endloop
  endfacet
  facet normal 0.000000e+000 0.000000e+000 -1.000000e+000
    outer loop
      vertex   1.299022e+002 5.040798e+000 4.000000e+002
      vertex   -9.281087e+001 9.102826e+001 4.000000e+002
      vertex   -8.547778e+001 9.794667e+001 4.000000e+002
    endloop
  endfacet
  facet normal 0.000000e+000 0.000000e+000 -1.000000e+000
    outer loop
      vertex   1.299022e+002 5.040798e+000 4.000000e+002
      vertex   -1.057618e+002 7.559397e+001 4.000000e+002
      vertex   -9.958578e+001 8.356239e+001 4.000000e+002
    endloop
  endfacet
  facet normal 0.000000e+000 0.000000e+000 -1.000000e+000
    outer loop
      vertex   1.299022e+002 5.040798e+000 4.000000e+002
      vertex   -1.237922e+002 3.969238e+001 4.000000e+002
      vertex   -1.203441e+002 4.916598e+001 4.000000e+002
    endloop
  endfacet
  facet normal 0.000000e+000 0.000000e+000 -1.000000e+000
    outer loop
      vertex   -1.284387e+002 2.008744e+001 4.000000e+002
      vertex   -1.264958e+002 2.998006e+001 4.000000e+002
      vertex   1.299022e+002 5.040798e+000 4.000000e+002
    endloop
  endfacet
  facet normal 0.000000e+000 0.000000e+000 -1.000000e+000
    outer loop
      vertex   1.299022e+002 -5.040798e+000 4.000000e+002
      vertex   -1.237922e+002 -3.969238e+001 4.000000e+002
      vertex   -1.264958e+002 -2.998006e+001 4.000000e+002
    endloop
  endfacet
  facet normal 0.000000e+000 0.000000e+000 -1.000000e+000
    outer loop
      vertex   -1.057618e+002 -7.559397e+001 4.000000e+002
      vertex   -1.113017e+002 -6.717092e+001 4.000000e+002
      vertex   1.299022e+002 -5.040798e+000 4.000000e+002
    endloop
  endfacet
  facet normal 0.000000e+000 0.000000e+000 -1.000000e+000
    outer loop
      vertex   1.299022e+002 -5.040798e+000 4.000000e+002
      vertex   -7.763062e+001 -1.042760e+002 4.000000e+002
      vertex   -8.547778e+001 -9.794667e+001 4.000000e+002
    endloop
  endfacet
  facet normal 0.000000e+000 0.000000e+000 -1.000000e+000
    outer loop
      vertex   -5.149037e+001 -1.193681e+002 4.000000e+002
      vertex   -6.058566e+001 -1.150190e+002 4.000000e+002
      vertex   1.299022e+002 -5.040798e+000 4.000000e+002
    endloop
  endfacet
  facet normal 0.000000e+000 0.000000e+000 -1.000000e+000
    outer loop
      vertex   1.299022e+002 -5.040798e+000 4.000000e+002
      vertex   -2.257426e+001 -1.280250e+002 4.000000e+002
      vertex   -3.242735e+001 -1.258907e+002 4.000000e+002
    endloop
  endfacet
  facet normal -0.000000e+000 0.000000e+000 -1.000000e+000
    outer loop
      vertex   3.728442e+001 -1.245386e+002 4.000000e+002
      vertex   2.752150e+001 -1.270534e+002 4.000000e+002
      vertex   1.252382e+002 -3.486244e+001 4.000000e+002
    endloop
  endfacet
  facet normal 0.000000e+000 0.000000e+000 -1.000000e+000
    outer loop
      vertex   1.086134e+002 -7.143617e+001 4.000000e+002
      vertex   1.027510e+002 -7.963807e+001 4.000000e+002
      vertex   6.500000e+001 -1.125833e+002 4.000000e+002
    endloop
  endfacet
  facet normal 0.000000e+000 0.000000e+000 -1.000000e+000
    outer loop
      vertex   1.759307e+001 -1.288041e+002 4.000000e+002
      vertex   1.291210e+002 -1.509208e+001 4.000000e+002
      vertex   1.275632e+002 -2.505259e+001 4.000000e+002
    endloop
  endfacet
  facet normal 0.000000e+000 0.000000e+000 -1.000000e+000
    outer loop
      vertex   -2.520873e+000 1.299756e+002 4.000000e+002
      vertex   1.183472e+002 5.379539e+001 4.000000e+002
      vertex   1.221600e+002 4.446262e+001 4.000000e+002
    endloop
  endfacet
  facet normal -0.000000e+000 -0.000000e+000 -1.000000e+000
    outer loop
      vertex   1.027510e+002 7.963807e+001 4.000000e+002
      vertex   1.086134e+002 7.143617e+001 4.000000e+002
      vertex   -2.520873e+000 1.299756e+002 4.000000e+002
    endloop
  endfacet
  facet normal 0.000000e+000 0.000000e+000 -1.000000e+000
    outer loop
      vertex   5.608019e+001 1.172818e+002 4.000000e+002
      vertex   6.500000e+001 1.125833e+002 4.000000e+002
      vertex   9.627072e+001 8.736102e+001 4.000000e+002
    endloop
  endfacet
  facet normal 0.000000e+000 0.000000e+000 -1.000000e+000
    outer loop
      vertex   9.627072e+001 8.736102e+001 4.000000e+002
      vertex   -2.520873e+000 1.299756e+002 4.000000e+002
      vertex   7.558828e+000 1.297801e+002 4.000000e+002
    endloop
  endfacet
  facet normal 0.000000e+000 0.000000e+000 -1.000000e+000
    outer loop
      vertex   1.299022e+002 5.040798e+000 4.000000e+002
      vertex   -4.208541e+001 1.229993e+002 4.000000e+002
      vertex   -3.242735e+001 1.258907e+002 4.000000e+002
    endloop
  endfacet
  facet normal 0.000000e+000 0.000000e+000 -1.000000e+000
    outer loop
      vertex   -6.931658e+001 1.099782e+002 4.000000e+002
      vertex   -6.058566e+001 1.150190e+002 4.000000e+002
      vertex   1.299022e+002 5.040798e+000 4.000000e+002
    endloop
  endfacet
  facet normal 0.000000e+000 0.000000e+000 -1.000000e+000
    outer loop
      vertex   1.299022e+002 5.040798e+000 4.000000e+002
      vertex   -1.113017e+002 6.717092e+001 4.000000e+002
      vertex   -1.057618e+002 7.559397e+001 4.000000e+002
    endloop
  endfacet
  facet normal 0.000000e+000 0.000000e+000 -1.000000e+000
    outer loop
      vertex   -1.264958e+002 2.998006e+001 4.000000e+002
      vertex   -1.237922e+002 3.969238e+001 4.000000e+002
      vertex   1.299022e+002 5.040798e+000 4.000000e+002
    endloop
  endfacet
  facet normal 0.000000e+000 0.000000e+000 -1.000000e+000
    outer loop
      vertex   1.299022e+002 -5.040798e+000 4.000000e+002
      vertex   -1.284387e+002 -2.008744e+001 4.000000e+002
      vertex   -1.296091e+002 -1.007401e+001 4.000000e+002
    endloop
  endfacet
  facet normal 0.000000e+000 0.000000e+000 -1.000000e+000
    outer loop
      vertex   1.299022e+002 -5.040798e+000 4.000000e+002
      vertex   -1.203441e+002 -4.916598e+001 4.000000e+002
      vertex   -1.237922e+002 -3.969238e+001 4.000000e+002
    endloop
  endfacet
  facet normal 0.000000e+000 0.000000e+000 -1.000000e+000
    outer loop
      vertex   -9.281087e+001 -9.102826e+001 4.000000e+002
      vertex   -9.958578e+001 -8.356239e+001 4.000000e+002
      vertex   1.299022e+002 -5.040798e+000 4.000000e+002
    endloop
  endfacet
  facet normal 0.000000e+000 0.000000e+000 -1.000000e+000
    outer loop
      vertex   -3.242735e+001 -1.258907e+002 4.000000e+002
      vertex   -4.208541e+001 -1.229993e+002 4.000000e+002
      vertex   1.299022e+002 -5.040798e+000 4.000000e+002
    endloop
  endfacet
  facet normal 0.000000e+000 0.000000e+000 -1.000000e+000
    outer loop
      vertex   1.299022e+002 -5.040798e+000 4.000000e+002
      vertex   -2.520873e+000 -1.299756e+002 4.000000e+002
      vertex   -1.258541e+001 -1.293894e+002 4.000000e+002
    endloop
  endfacet
  facet normal 0.000000e+000 0.000000e+000 -1.000000e+000
    outer loop
      vertex   1.299022e+002 -5.040798e+000 4.000000e+002
      vertex   1.759307e+001 -1.288041e+002 4.000000e+002
      vertex   7.558828e+000 -1.297801e+002 4.000000e+002
    endloop
  endfacet
  facet normal 0.000000e+000 0.000000e+000 -1.000000e+000
    outer loop
      vertex   8.161558e+001 -1.011874e+002 4.000000e+002
      vertex   7.352889e+001 -1.072078e+002 4.000000e+002
      vertex   6.500000e+001 -1.125833e+002 4.000000e+002
    endloop
  endfacet
  facet normal 0.000000e+000 0.000000e+000 -1.000000e+000
    outer loop
      vertex   1.759307e+001 -1.288041e+002 4.000000e+002
      vertex   1.299022e+002 -5.040798e+000 4.000000e+002
      vertex   1.291210e+002 -1.509208e+001 4.000000e+002
    endloop
  endfacet
  facet normal -0.000000e+000 -0.000000e+000 -1.000000e+000
    outer loop
      vertex   1.138226e+002 6.280464e+001 4.000000e+002
      vertex   1.183472e+002 5.379539e+001 4.000000e+002
      vertex   -2.520873e+000 1.299756e+002 4.000000e+002
    endloop
  endfacet
  facet normal 0.000000e+000 0.000000e+000 -1.000000e+000
    outer loop
      vertex   3.728442e+001 1.245386e+002 4.000000e+002
      vertex   4.682310e+001 1.212749e+002 4.000000e+002
      vertex   9.627072e+001 8.736102e+001 4.000000e+002
    endloop
  endfacet
  facet normal 0.000000e+000 0.000000e+000 -1.000000e+000
    outer loop
      vertex   -5.149037e+001 1.193681e+002 4.000000e+002
      vertex   -4.208541e+001 1.229993e+002 4.000000e+002
      vertex   1.299022e+002 5.040798e+000 4.000000e+002
    endloop
  endfacet
  facet normal 0.000000e+000 0.000000e+000 -1.000000e+000
    outer loop
      vertex   -1.161722e+002 5.834389e+001 4.000000e+002
      vertex   -1.113017e+002 6.717092e+001 4.000000e+002
      vertex   1.299022e+002 5.040798e+000 4.000000e+002
    endloop
  endfacet
  facet normal 0.000000e+000 0.000000e+000 -1.000000e+000
    outer loop
      vertex   -1.264958e+002 -2.998006e+001 4.000000e+002
      vertex   -1.284387e+002 -2.008744e+001 4.000000e+002
      vertex   1.299022e+002 -5.040798e+000 4.000000e+002
    endloop
  endfacet
  facet normal 0.000000e+000 0.000000e+000 -1.000000e+000
    outer loop
      vertex   -6.931658e+001 -1.099782e+002 4.000000e+002
      vertex   -7.763062e+001 -1.042760e+002 4.000000e+002
      vertex   1.299022e+002 -5.040798e+000 4.000000e+002
    endloop
  endfacet
  facet normal -0.000000e+000 0.000000e+000 -1.000000e+000
    outer loop
      vertex   7.558828e+000 -1.297801e+002 4.000000e+002
      vertex   -2.520873e+000 -1.299756e+002 4.000000e+002
      vertex   1.299022e+002 -5.040798e+000 4.000000e+002
    endloop
  endfacet
  facet normal 0.000000e+000 0.000000e+000 -1.000000e+000
    outer loop
      vertex   1.275632e+002 -2.505259e+001 4.000000e+002
      vertex   1.252382e+002 -3.486244e+001 4.000000e+002
      vertex   1.759307e+001 -1.288041e+002 4.000000e+002
    endloop
  endfacet
  facet normal 0.000000e+000 0.000000e+000 -1.000000e+000
    outer loop
      vertex   8.161558e+001 1.011874e+002 4.000000e+002
      vertex   8.921141e+001 9.455857e+001 4.000000e+002
      vertex   9.627072e+001 8.736102e+001 4.000000e+002
    endloop
  endfacet
  facet normal 0.000000e+000 0.000000e+000 -1.000000e+000
    outer loop
      vertex   -9.958578e+001 8.356239e+001 4.000000e+002
      vertex   -9.281087e+001 9.102826e+001 4.000000e+002
      vertex   1.299022e+002 5.040798e+000 4.000000e+002
    endloop
  endfacet
  facet normal 0.000000e+000 0.000000e+000 -1.000000e+000
    outer loop
      vertex   -1.161722e+002 -5.834389e+001 4.000000e+002
      vertex   -1.203441e+002 -4.916598e+001 4.000000e+002
      vertex   1.299022e+002 -5.040798e+000 4.000000e+002
    endloop
  endfacet
  facet normal -0.000000e+000 0.000000e+000 -1.000000e+000
    outer loop
      vertex   2.752150e+001 -1.270534e+002 4.000000e+002
      vertex   1.759307e+001 -1.288041e+002 4.000000e+002
      vertex   1.252382e+002 -3.486244e+001 4.000000e+002
    endloop
  endfacet
  facet normal 0.000000e+000 0.000000e+000 -1.000000e+000
    outer loop
      vertex   -1.258541e+001 1.293894e+002 4.000000e+002
      vertex   -2.520873e+000 1.299756e+002 4.000000e+002
      vertex   1.299022e+002 5.040798e+000 4.000000e+002
    endloop
  endfacet
  facet normal 0.000000e+000 0.000000e+000 -1.000000e+000
    outer loop
      vertex   -1.258541e+001 -1.293894e+002 4.000000e+002
      vertex   -2.257426e+001 -1.280250e+002 4.000000e+002
      vertex   1.299022e+002 -5.040798e+000 4.000000e+002
    endloop
  endfacet
  facet normal -0.000000e+000 0.000000e+000 -1.000000e+000
    outer loop
      vertex   1.299022e+002 5.040798e+000 4.000000e+002
      vertex   -1.300000e+002 -3.184082e-014 4.000000e+002
      vertex   -1.296091e+002 1.007401e+001 4.000000e+002
    endloop
  endfacet
  facet normal 0.000000e+000 0.000000e+000 -1.000000e+000
    outer loop
      vertex   -1.300000e+002 -3.184082e-014 4.000000e+002
      vertex   1.300000e+002 1.592041e-014 4.000000e+002
      vertex   1.299022e+002 -5.040798e+000 4.000000e+002
    endloop
  endfacet
  facet normal -0.000000e+000 -0.000000e+000 -1.000000e+000
    outer loop
      vertex   1.291210e+002 1.509208e+001 4.000000e+002
      vertex   1.299022e+002 5.040798e+000 4.000000e+002
      vertex   -2.520873e+000 1.299756e+002 4.000000e+002
    endloop
  endfacet
  facet normal 0.000000e+000 -0.000000e+000 -1.000000e+000
    outer loop
      vertex   1.299022e+002 5.040798e+000 4.000000e+002
      vertex   1.300000e+002 1.592041e-014 4.000000e+002
      vertex   -1.300000e+002 -3.184082e-014 4.000000e+002
    endloop
  endfacet
  facet normal 0.000000e+000 0.000000e+000 -1.000000e+000
    outer loop
      vertex   -1.296091e+002 -1.007401e+001 4.000000e+002
      vertex   -1.300000e+002 -3.184082e-014 4.000000e+002
      vertex   1.299022e+002 -5.040798e+000 4.000000e+002
    endloop
  endfacet
endsolid
