solid ascii
  facet normal 9.992662e-001 3.830273e-002 -1.393405e-016
    outer loop
      vertex   1.350725e+002 1.037013e+001 2.000000e+002
      vertex   1.350725e+002 1.037013e+001 4.000000e+002
      vertex   1.354700e+002 0.000000e+000 4.000000e+002
    endloop
  endfacet
  facet normal 9.934021e-001 1.146834e-001 -1.398517e-016
    outer loop
      vertex   1.338823e+002 2.067940e+001 2.000000e+002
      vertex   1.338823e+002 2.067940e+001 4.000000e+002
      vertex   1.350725e+002 1.037013e+001 4.000000e+002
    endloop
  endfacet
  facet normal 9.817083e-001 1.903911e-001 -1.428449e-016
    outer loop
      vertex   1.319065e+002 3.086731e+001 2.000000e+002
      vertex   1.319065e+002 3.086731e+001 4.000000e+002
      vertex   1.338823e+002 2.067940e+001 4.000000e+002
    endloop
  endfacet
  facet normal 9.642535e-001 2.649815e-001 -1.430104e-016
    outer loop
      vertex   1.291566e+002 4.087409e+001 2.000000e+002
      vertex   1.291566e+002 4.087409e+001 4.000000e+002
      vertex   1.319065e+002 3.086731e+001 4.000000e+002
    endloop
  endfacet
  facet normal 9.411400e-001 3.380169e-001 -3.518195e-017
    outer loop
      vertex   1.256488e+002 5.064100e+001 2.000000e+002
      vertex   1.256488e+002 5.064100e+001 4.000000e+002
      vertex   1.291566e+002 4.087409e+001 4.000000e+002
    endloop
  endfacet
  facet normal 9.125036e-001 4.090686e-001 -1.550202e-016
    outer loop
      vertex   1.214035e+002 6.011073e+001 2.000000e+002
      vertex   1.214035e+002 6.011073e+001 4.000000e+002
      vertex   1.256488e+002 5.064100e+001 4.000000e+002
    endloop
  endfacet
  facet normal 8.785123e-001 4.777198e-001 -1.828771e-016
    outer loop
      vertex   1.164459e+002 6.922770e+001 2.000000e+002
      vertex   1.164459e+002 6.922770e+001 4.000000e+002
      vertex   1.214035e+002 6.011073e+001 4.000000e+002
    endloop
  endfacet
  facet normal 8.393654e-001 5.435676e-001 -2.124456e-016
    outer loop
      vertex   1.108049e+002 7.793842e+001 2.000000e+002
      vertex   1.108049e+002 7.793842e+001 4.000000e+002
      vertex   1.164459e+002 6.922770e+001 4.000000e+002
    endloop
  endfacet
  facet normal 7.952929e-001 6.062254e-001 -1.524344e-016
    outer loop
      vertex   1.045136e+002 8.619176e+001 2.000000e+002
      vertex   1.045136e+002 8.619176e+001 4.000000e+002
      vertex   1.108049e+002 7.793842e+001 4.000000e+002
    endloop
  endfacet
  facet normal 7.465532e-001 6.653257e-001 -1.441350e-016
    outer loop
      vertex   9.760906e+001 9.393930e+001 2.000000e+002
      vertex   9.760906e+001 9.393930e+001 4.000000e+002
      vertex   1.045136e+002 8.619176e+001 4.000000e+002
    endloop
  endfacet
  facet normal 6.934325e-001 7.205216e-001 -4.999623e-017
    outer loop
      vertex   9.013167e+001 1.011356e+002 2.000000e+002
      vertex   9.013167e+001 1.011356e+002 4.000000e+002
      vertex   9.760906e+001 9.393930e+001 4.000000e+002
    endloop
  endfacet
  facet normal 6.362424e-001 7.714892e-001 -1.605984e-016
    outer loop
      vertex   8.212536e+001 1.077383e+002 2.000000e+002
      vertex   8.212536e+001 1.077383e+002 4.000000e+002
      vertex   9.013167e+001 1.011356e+002 4.000000e+002
    endloop
  endfacet
  facet normal 5.753187e-001 8.179294e-001 -5.675525e-017
    outer loop
      vertex   7.363710e+001 1.137088e+002 2.000000e+002
      vertex   7.363710e+001 1.137088e+002 4.000000e+002
      vertex   8.212536e+001 1.077383e+002 4.000000e+002
    endloop
  endfacet
  facet normal 5.110187e-001 8.595696e-001 -1.434748e-016
    outer loop
      vertex   6.471670e+001 1.190121e+002 2.000000e+002
      vertex   6.471670e+001 1.190121e+002 4.000000e+002
      vertex   7.363710e+001 1.137088e+002 4.000000e+002
    endloop
  endfacet
  facet normal 4.437198e-001 8.961656e-001 -1.557627e-016
    outer loop
      vertex   5.541653e+001 1.236169e+002 2.000000e+002
      vertex   5.541653e+001 1.236169e+002 4.000000e+002
      vertex   6.471670e+001 1.190121e+002 4.000000e+002
    endloop
  endfacet
  facet normal 3.738171e-001 9.275025e-001 -8.980867e-017
    outer loop
      vertex   4.579115e+001 1.274962e+002 2.000000e+002
      vertex   4.579115e+001 1.274962e+002 4.000000e+002
      vertex   5.541653e+001 1.236169e+002 4.000000e+002
    endloop
  endfacet
  facet normal 3.017206e-001 9.533964e-001 -9.043818e-017
    outer loop
      vertex   3.589704e+001 1.306274e+002 2.000000e+002
      vertex   3.589704e+001 1.306274e+002 4.000000e+002
      vertex   4.579115e+001 1.274962e+002 4.000000e+002
    endloop
  endfacet
  facet normal 2.278535e-001 9.736954e-001 -1.074590e-016
    outer loop
      vertex   2.579228e+001 1.329920e+002 2.000000e+002
      vertex   2.579228e+001 1.329920e+002 4.000000e+002
      vertex   3.589704e+001 1.306274e+002 4.000000e+002
    endloop
  endfacet
  facet normal 1.526493e-001 9.882804e-001 -9.345875e-017
    outer loop
      vertex   1.553616e+001 1.345762e+002 2.000000e+002
      vertex   1.553616e+001 1.345762e+002 4.000000e+002
      vertex   2.579228e+001 1.329920e+002 4.000000e+002
    endloop
  endfacet
  facet normal 7.654925e-002 9.970658e-001 -1.157961e-016
    outer loop
      vertex   5.188871e+000 1.353706e+002 2.000000e+002
      vertex   5.188871e+000 1.353706e+002 4.000000e+002
      vertex   1.553616e+001 1.345762e+002 4.000000e+002
    endloop
  endfacet
  facet normal 0.000000e+000 1.000000e+000 -1.387779e-016
    outer loop
      vertex   -5.188871e+000 1.353706e+002 2.000000e+002
      vertex   -5.188871e+000 1.353706e+002 4.000000e+002
      vertex   5.188871e+000 1.353706e+002 4.000000e+002
    endloop
  endfacet
  facet normal -7.654925e-002 9.970658e-001 -1.616092e-016
    outer loop
      vertex   -1.553616e+001 1.345762e+002 2.000000e+002
      vertex   -1.553616e+001 1.345762e+002 4.000000e+002
      vertex   -5.188871e+000 1.353706e+002 4.000000e+002
    endloop
  endfacet
  facet normal -1.526493e-001 9.882804e-001 -1.848162e-016
    outer loop
      vertex   -2.579228e+001 1.329920e+002 2.000000e+002
      vertex   -2.579228e+001 1.329920e+002 4.000000e+002
      vertex   -1.553616e+001 1.345762e+002 4.000000e+002
    endloop
  endfacet
  facet normal -2.278535e-001 9.736954e-001 -1.106736e-016
    outer loop
      vertex   -3.589704e+001 1.306274e+002 2.000000e+002
      vertex   -3.589704e+001 1.306274e+002 4.000000e+002
      vertex   -2.579228e+001 1.329920e+002 4.000000e+002
    endloop
  endfacet
  facet normal -3.017206e-001 9.533964e-001 -1.360845e-016
    outer loop
      vertex   -4.579115e+001 1.274962e+002 2.000000e+002
      vertex   -4.579115e+001 1.274962e+002 4.000000e+002
      vertex   -3.589704e+001 1.306274e+002 4.000000e+002
    endloop
  endfacet
  facet normal -3.738171e-001 9.275025e-001 -1.042436e-016
    outer loop
      vertex   -5.541653e+001 1.236169e+002 2.000000e+002
      vertex   -5.541653e+001 1.236169e+002 4.000000e+002
      vertex   -4.579115e+001 1.274962e+002 4.000000e+002
    endloop
  endfacet
  facet normal -4.437198e-001 8.961656e-001 -6.097302e-017
    outer loop
      vertex   -6.471670e+001 1.190121e+002 2.000000e+002
      vertex   -6.471670e+001 1.190121e+002 4.000000e+002
      vertex   -5.541653e+001 1.236169e+002 4.000000e+002
    endloop
  endfacet
  facet normal -5.110187e-001 8.595696e-001 -8.219155e-017
    outer loop
      vertex   -7.363710e+001 1.137088e+002 2.000000e+002
      vertex   -7.363710e+001 1.137088e+002 4.000000e+002
      vertex   -6.471670e+001 1.190121e+002 4.000000e+002
    endloop
  endfacet
  facet normal -5.753187e-001 8.179294e-001 -1.534313e-016
    outer loop
      vertex   -8.212536e+001 1.077383e+002 2.000000e+002
      vertex   -8.212536e+001 1.077383e+002 4.000000e+002
      vertex   -7.363710e+001 1.137088e+002 4.000000e+002
    endloop
  endfacet
  facet normal -6.362424e-001 7.714892e-001 -9.768100e-017
    outer loop
      vertex   -9.013167e+001 1.011356e+002 2.000000e+002
      vertex   -9.013167e+001 1.011356e+002 4.000000e+002
      vertex   -8.212536e+001 1.077383e+002 4.000000e+002
    endloop
  endfacet
  facet normal -6.934325e-001 7.205216e-001 -1.481090e-016
    outer loop
      vertex   -9.760906e+001 9.393930e+001 2.000000e+002
      vertex   -9.760906e+001 9.393930e+001 4.000000e+002
      vertex   -9.013167e+001 1.011356e+002 4.000000e+002
    endloop
  endfacet
  facet normal -7.465532e-001 6.653257e-001 -1.328624e-016
    outer loop
      vertex   -1.045136e+002 8.619176e+001 2.000000e+002
      vertex   -1.045136e+002 8.619176e+001 4.000000e+002
      vertex   -9.760906e+001 9.393930e+001 4.000000e+002
    endloop
  endfacet
  facet normal -7.952929e-001 6.062254e-001 -2.523920e-016
    outer loop
      vertex   -1.108049e+002 7.793842e+001 2.000000e+002
      vertex   -1.108049e+002 7.793842e+001 4.000000e+002
      vertex   -1.045136e+002 8.619176e+001 4.000000e+002
    endloop
  endfacet
  facet normal -8.393654e-001 5.435676e-001 -9.262763e-017
    outer loop
      vertex   -1.164459e+002 6.922770e+001 2.000000e+002
      vertex   -1.164459e+002 6.922770e+001 4.000000e+002
      vertex   -1.108049e+002 7.793842e+001 4.000000e+002
    endloop
  endfacet
  facet normal -8.785123e-001 4.777198e-001 -8.231067e-017
    outer loop
      vertex   -1.214035e+002 6.011073e+001 2.000000e+002
      vertex   -1.214035e+002 6.011073e+001 4.000000e+002
      vertex   -1.164459e+002 6.922770e+001 4.000000e+002
    endloop
  endfacet
  facet normal -9.125036e-001 4.090686e-001 -1.146358e-016
    outer loop
      vertex   -1.256488e+002 5.064100e+001 2.000000e+002
      vertex   -1.256488e+002 5.064100e+001 4.000000e+002
      vertex   -1.214035e+002 6.011073e+001 4.000000e+002
    endloop
  endfacet
  facet normal -9.411400e-001 3.380169e-001 -1.743008e-016
    outer loop
      vertex   -1.291566e+002 4.087409e+001 2.000000e+002
      vertex   -1.291566e+002 4.087409e+001 4.000000e+002
      vertex   -1.256488e+002 5.064100e+001 4.000000e+002
    endloop
  endfacet
  facet normal -9.642535e-001 2.649815e-001 -1.098079e-016
    outer loop
      vertex   -1.319065e+002 3.086731e+001 2.000000e+002
      vertex   -1.319065e+002 3.086731e+001 4.000000e+002
      vertex   -1.291566e+002 4.087409e+001 4.000000e+002
    endloop
  endfacet
  facet normal -9.817083e-001 1.903911e-001 -3.880684e-017
    outer loop
      vertex   -1.338823e+002 2.067940e+001 2.000000e+002
      vertex   -1.338823e+002 2.067940e+001 4.000000e+002
      vertex   -1.319065e+002 3.086731e+001 4.000000e+002
    endloop
  endfacet
  facet normal -9.934021e-001 1.146834e-001 -1.392608e-016
    outer loop
      vertex   -1.350725e+002 1.037013e+001 2.000000e+002
      vertex   -1.350725e+002 1.037013e+001 4.000000e+002
      vertex   -1.338823e+002 2.067940e+001 4.000000e+002
    endloop
  endfacet
  facet normal -9.992662e-001 3.830273e-002 -1.847625e-016
    outer loop
      vertex   -1.354700e+002 -2.240528e-013 2.000000e+002
      vertex   -1.354700e+002 1.659029e-014 4.000000e+002
      vertex   -1.350725e+002 1.037013e+001 4.000000e+002
    endloop
  endfacet
  facet normal -9.992662e-001 -3.830273e-002 -8.120142e-017
    outer loop
      vertex   -1.350725e+002 -1.037013e+001 2.000000e+002
      vertex   -1.350725e+002 -1.037013e+001 4.000000e+002
      vertex   -1.354700e+002 1.659029e-014 4.000000e+002
    endloop
  endfacet
  facet normal -9.934021e-001 -1.146834e-001 -1.066220e-016
    outer loop
      vertex   -1.338823e+002 -2.067940e+001 2.000000e+002
      vertex   -1.338823e+002 -2.067940e+001 4.000000e+002
      vertex   -1.350725e+002 -1.037013e+001 4.000000e+002
    endloop
  endfacet
  facet normal -9.817083e-001 -1.903911e-001 -2.179844e-016
    outer loop
      vertex   -1.319065e+002 -3.086731e+001 2.000000e+002
      vertex   -1.319065e+002 -3.086731e+001 4.000000e+002
      vertex   -1.338823e+002 -2.067940e+001 4.000000e+002
    endloop
  endfacet
  facet normal -9.642535e-001 -2.649815e-001 -2.186090e-016
    outer loop
      vertex   -1.291566e+002 -4.087409e+001 2.000000e+002
      vertex   -1.291566e+002 -4.087409e+001 4.000000e+002
      vertex   -1.319065e+002 -3.086731e+001 4.000000e+002
    endloop
  endfacet
  facet normal -9.411400e-001 -3.380169e-001 -2.692635e-016
    outer loop
      vertex   -1.256488e+002 -5.064100e+001 2.000000e+002
      vertex   -1.256488e+002 -5.064100e+001 4.000000e+002
      vertex   -1.291566e+002 -4.087409e+001 4.000000e+002
    endloop
  endfacet
  facet normal -9.125036e-001 -4.090686e-001 -2.750767e-016
    outer loop
      vertex   -1.214035e+002 -6.011073e+001 2.000000e+002
      vertex   -1.214035e+002 -6.011073e+001 4.000000e+002
      vertex   -1.256488e+002 -5.064100e+001 4.000000e+002
    endloop
  endfacet
  facet normal -8.785123e-001 -4.777198e-001 -2.075918e-016
    outer loop
      vertex   -1.164459e+002 -6.922770e+001 2.000000e+002
      vertex   -1.164459e+002 -6.922770e+001 4.000000e+002
      vertex   -1.214035e+002 -6.011073e+001 4.000000e+002
    endloop
  endfacet
  facet normal -8.393654e-001 -5.435676e-001 -1.670041e-016
    outer loop
      vertex   -1.108049e+002 -7.793842e+001 2.000000e+002
      vertex   -1.108049e+002 -7.793842e+001 4.000000e+002
      vertex   -1.164459e+002 -6.922770e+001 4.000000e+002
    endloop
  endfacet
  facet normal -7.952929e-001 -6.062254e-001 -2.727952e-016
    outer loop
      vertex   -1.045136e+002 -8.619176e+001 2.000000e+002
      vertex   -1.045136e+002 -8.619176e+001 4.000000e+002
      vertex   -1.108049e+002 -7.793842e+001 4.000000e+002
    endloop
  endfacet
  facet normal -7.465532e-001 -6.653257e-001 -2.332398e-016
    outer loop
      vertex   -9.760906e+001 -9.393930e+001 2.000000e+002
      vertex   -9.760906e+001 -9.393930e+001 4.000000e+002
      vertex   -1.045136e+002 -8.619176e+001 4.000000e+002
    endloop
  endfacet
  facet normal -6.934325e-001 -7.205216e-001 -2.417072e-016
    outer loop
      vertex   -9.013167e+001 -1.011356e+002 2.000000e+002
      vertex   -9.013167e+001 -1.011356e+002 4.000000e+002
      vertex   -9.760906e+001 -9.393930e+001 4.000000e+002
    endloop
  endfacet
  facet normal -6.362424e-001 -7.714892e-001 -2.096411e-016
    outer loop
      vertex   -8.212536e+001 -1.077383e+002 2.000000e+002
      vertex   -8.212536e+001 -1.077383e+002 4.000000e+002
      vertex   -9.013167e+001 -1.011356e+002 4.000000e+002
    endloop
  endfacet
  facet normal -5.753187e-001 -8.179294e-001 -2.284523e-016
    outer loop
      vertex   -7.363710e+001 -1.137088e+002 2.000000e+002
      vertex   -7.363710e+001 -1.137088e+002 4.000000e+002
      vertex   -8.212536e+001 -1.077383e+002 4.000000e+002
    endloop
  endfacet
  facet normal -5.110187e-001 -8.595696e-001 -2.496549e-016
    outer loop
      vertex   -6.471670e+001 -1.190121e+002 2.000000e+002
      vertex   -6.471670e+001 -1.190121e+002 4.000000e+002
      vertex   -7.363710e+001 -1.137088e+002 4.000000e+002
    endloop
  endfacet
  facet normal -4.437198e-001 -8.961656e-001 -2.520209e-016
    outer loop
      vertex   -5.541653e+001 -1.236169e+002 2.000000e+002
      vertex   -5.541653e+001 -1.236169e+002 4.000000e+002
      vertex   -6.471670e+001 -1.190121e+002 4.000000e+002
    endloop
  endfacet
  facet normal -3.738171e-001 -9.275025e-001 -1.754412e-016
    outer loop
      vertex   -4.579115e+001 -1.274962e+002 2.000000e+002
      vertex   -4.579115e+001 -1.274962e+002 4.000000e+002
      vertex   -5.541653e+001 -1.236169e+002 4.000000e+002
    endloop
  endfacet
  facet normal -3.017206e-001 -9.533964e-001 -2.738777e-016
    outer loop
      vertex   -3.589704e+001 -1.306274e+002 2.000000e+002
      vertex   -3.589704e+001 -1.306274e+002 4.000000e+002
      vertex   -4.579115e+001 -1.274962e+002 4.000000e+002
    endloop
  endfacet
  facet normal -2.278535e-001 -9.736954e-001 -2.776845e-016
    outer loop
      vertex   -2.579228e+001 -1.329920e+002 2.000000e+002
      vertex   -2.579228e+001 -1.329920e+002 4.000000e+002
      vertex   -3.589704e+001 -1.306274e+002 4.000000e+002
    endloop
  endfacet
  facet normal -1.526493e-001 -9.882804e-001 -2.764900e-016
    outer loop
      vertex   -1.553616e+001 -1.345762e+002 2.000000e+002
      vertex   -1.553616e+001 -1.345762e+002 4.000000e+002
      vertex   -2.579228e+001 -1.329920e+002 4.000000e+002
    endloop
  endfacet
  facet normal -7.654925e-002 -9.970658e-001 -2.762069e-016
    outer loop
      vertex   -5.188871e+000 -1.353706e+002 2.000000e+002
      vertex   -5.188871e+000 -1.353706e+002 4.000000e+002
      vertex   -1.553616e+001 -1.345762e+002 4.000000e+002
    endloop
  endfacet
  facet normal 0.000000e+000 -1.000000e+000 -2.775558e-016
    outer loop
      vertex   5.188871e+000 -1.353706e+002 2.000000e+002
      vertex   5.188871e+000 -1.353706e+002 4.000000e+002
      vertex   -5.188871e+000 -1.353706e+002 4.000000e+002
    endloop
  endfacet
  facet normal 7.654925e-002 -9.970658e-001 -1.415609e-016
    outer loop
      vertex   1.553616e+001 -1.345762e+002 2.000000e+002
      vertex   1.553616e+001 -1.345762e+002 4.000000e+002
      vertex   5.188871e+000 -1.353706e+002 4.000000e+002
    endloop
  endfacet
  facet normal 1.526493e-001 -9.882804e-001 -1.508526e-016
    outer loop
      vertex   2.579228e+001 -1.329920e+002 2.000000e+002
      vertex   2.579228e+001 -1.329920e+002 4.000000e+002
      vertex   1.553616e+001 -1.345762e+002 4.000000e+002
    endloop
  endfacet
  facet normal 2.278535e-001 -9.736954e-001 -4.342641e-016
    outer loop
      vertex   3.589704e+001 -1.306274e+002 2.000000e+002
      vertex   3.589704e+001 -1.306274e+002 4.000000e+002
      vertex   2.579228e+001 -1.329920e+002 4.000000e+002
    endloop
  endfacet
  facet normal 3.017206e-001 -9.533964e-001 -4.153039e-016
    outer loop
      vertex   4.579115e+001 -1.274962e+002 2.000000e+002
      vertex   4.579115e+001 -1.274962e+002 4.000000e+002
      vertex   3.589704e+001 -1.306274e+002 4.000000e+002
    endloop
  endfacet
  facet normal 3.738171e-001 -9.275025e-001 -3.240141e-016
    outer loop
      vertex   5.541653e+001 -1.236169e+002 2.000000e+002
      vertex   5.541653e+001 -1.236169e+002 4.000000e+002
      vertex   4.579115e+001 -1.274962e+002 4.000000e+002
    endloop
  endfacet
  facet normal 4.437198e-001 -8.961656e-001 -2.669003e-016
    outer loop
      vertex   6.471670e+001 -1.190121e+002 2.000000e+002
      vertex   6.471670e+001 -1.190121e+002 4.000000e+002
      vertex   5.541653e+001 -1.236169e+002 4.000000e+002
    endloop
  endfacet
  facet normal 5.110187e-001 -8.595696e-001 -3.646194e-016
    outer loop
      vertex   7.363710e+001 -1.137088e+002 2.000000e+002
      vertex   7.363710e+001 -1.137088e+002 4.000000e+002
      vertex   6.471670e+001 -1.190121e+002 4.000000e+002
    endloop
  endfacet
  facet normal 5.753187e-001 -8.179294e-001 -3.415104e-016
    outer loop
      vertex   8.212536e+001 -1.077383e+002 2.000000e+002
      vertex   8.212536e+001 -1.077383e+002 4.000000e+002
      vertex   7.363710e+001 -1.137088e+002 4.000000e+002
    endloop
  endfacet
  facet normal 6.362424e-001 -7.714892e-001 -3.621657e-016
    outer loop
      vertex   9.013167e+001 -1.011356e+002 2.000000e+002
      vertex   9.013167e+001 -1.011356e+002 4.000000e+002
      vertex   8.212536e+001 -1.077383e+002 4.000000e+002
    endloop
  endfacet
  facet normal 6.934325e-001 -7.205216e-001 -3.364466e-016
    outer loop
      vertex   9.760906e+001 -9.393930e+001 2.000000e+002
      vertex   9.760906e+001 -9.393930e+001 4.000000e+002
      vertex   9.013167e+001 -1.011356e+002 4.000000e+002
    endloop
  endfacet
  facet normal 7.465532e-001 -6.653257e-001 -3.172707e-016
    outer loop
      vertex   1.045136e+002 -8.619176e+001 2.000000e+002
      vertex   1.045136e+002 -8.619176e+001 4.000000e+002
      vertex   9.760906e+001 -9.393930e+001 4.000000e+002
    endloop
  endfacet
  facet normal 7.952929e-001 -6.062254e-001 -3.007122e-016
    outer loop
      vertex   1.108049e+002 -7.793842e+001 2.000000e+002
      vertex   1.108049e+002 -7.793842e+001 4.000000e+002
      vertex   1.045136e+002 -8.619176e+001 4.000000e+002
    endloop
  endfacet
  facet normal 8.393654e-001 -5.435676e-001 -3.515734e-016
    outer loop
      vertex   1.164459e+002 -6.922770e+001 2.000000e+002
      vertex   1.164459e+002 -6.922770e+001 4.000000e+002
      vertex   1.108049e+002 -7.793842e+001 4.000000e+002
    endloop
  endfacet
  facet normal 8.785123e-001 -4.777198e-001 -3.418934e-016
    outer loop
      vertex   1.214035e+002 -6.011073e+001 2.000000e+002
      vertex   1.214035e+002 -6.011073e+001 4.000000e+002
      vertex   1.164459e+002 -6.922770e+001 4.000000e+002
    endloop
  endfacet
  facet normal 9.125036e-001 -4.090686e-001 -3.133912e-016
    outer loop
      vertex   1.256488e+002 -5.064100e+001 2.000000e+002
      vertex   1.256488e+002 -5.064100e+001 4.000000e+002
      vertex   1.214035e+002 -6.011073e+001 4.000000e+002
    endloop
  endfacet
  facet normal 9.411400e-001 -3.380169e-001 -3.223938e-016
    outer loop
      vertex   1.291566e+002 -4.087409e+001 2.000000e+002
      vertex   1.291566e+002 -4.087409e+001 4.000000e+002
      vertex   1.256488e+002 -5.064100e+001 4.000000e+002
    endloop
  endfacet
  facet normal 9.642535e-001 -2.649815e-001 -4.698697e-016
    outer loop
      vertex   1.319065e+002 -3.086731e+001 2.000000e+002
      vertex   1.319065e+002 -3.086731e+001 4.000000e+002
      vertex   1.291566e+002 -4.087409e+001 4.000000e+002
    endloop
  endfacet
  facet normal 9.817083e-001 -1.903911e-001 -4.549522e-016
    outer loop
      vertex   1.338823e+002 -2.067940e+001 2.000000e+002
      vertex   1.338823e+002 -2.067940e+001 4.000000e+002
      vertex   1.319065e+002 -3.086731e+001 4.000000e+002
    endloop
  endfacet
  facet normal 9.934021e-001 -1.146834e-001 -2.747596e-016
    outer loop
      vertex   1.350725e+002 -1.037013e+001 2.000000e+002
      vertex   1.350725e+002 -1.037013e+001 4.000000e+002
      vertex   1.338823e+002 -2.067940e+001 4.000000e+002
    endloop
  endfacet
  facet normal 9.992662e-001 -3.830273e-002 -1.386760e-016
    outer loop
      vertex   1.354700e+002 0.000000e+000 2.000000e+002
      vertex   1.354700e+002 0.000000e+000 4.000000e+002
      vertex   1.350725e+002 -1.037013e+001 4.000000e+002
    endloop
  endfacet
  facet normal 9.992662e-001 -3.830273e-002 1.861296e-016
    outer loop
      vertex   1.350725e+002 -1.037013e+001 4.000000e+002
      vertex   1.350725e+002 -1.037013e+001 2.000000e+002
      vertex   1.354700e+002 0.000000e+000 2.000000e+002
    endloop
  endfacet
  facet normal 9.934021e-001 -1.146834e-001 4.943706e-018
    outer loop
      vertex   1.338823e+002 -2.067940e+001 4.000000e+002
      vertex   1.338823e+002 -2.067940e+001 2.000000e+002
      vertex   1.350725e+002 -1.037013e+001 2.000000e+002
    endloop
  endfacet
  facet normal 9.817083e-001 -1.903911e-001 -5.696855e-017
    outer loop
      vertex   1.319065e+002 -3.086731e+001 4.000000e+002
      vertex   1.319065e+002 -3.086731e+001 2.000000e+002
      vertex   1.338823e+002 -2.067940e+001 2.000000e+002
    endloop
  endfacet
  facet normal 9.642535e-001 -2.649815e-001 9.297870e-017
    outer loop
      vertex   1.291566e+002 -4.087409e+001 4.000000e+002
      vertex   1.291566e+002 -4.087409e+001 2.000000e+002
      vertex   1.319065e+002 -3.086731e+001 2.000000e+002
    endloop
  endfacet
  facet normal 9.411400e-001 -3.380169e-001 1.046164e-016
    outer loop
      vertex   1.256488e+002 -5.064100e+001 4.000000e+002
      vertex   1.256488e+002 -5.064100e+001 2.000000e+002
      vertex   1.291566e+002 -4.087409e+001 2.000000e+002
    endloop
  endfacet
  facet normal 9.125036e-001 -4.090686e-001 7.415916e-017
    outer loop
      vertex   1.214035e+002 -6.011073e+001 4.000000e+002
      vertex   1.214035e+002 -6.011073e+001 2.000000e+002
      vertex   1.256488e+002 -5.064100e+001 2.000000e+002
    endloop
  endfacet
  facet normal 8.785123e-001 -4.777198e-001 6.234720e-017
    outer loop
      vertex   1.164459e+002 -6.922770e+001 4.000000e+002
      vertex   1.164459e+002 -6.922770e+001 2.000000e+002
      vertex   1.214035e+002 -6.011073e+001 2.000000e+002
    endloop
  endfacet
  facet normal 8.393654e-001 -5.435676e-001 6.331989e-017
    outer loop
      vertex   1.108049e+002 -7.793842e+001 4.000000e+002
      vertex   1.108049e+002 -7.793842e+001 2.000000e+002
      vertex   1.164459e+002 -6.922770e+001 2.000000e+002
    endloop
  endfacet
  facet normal 7.952929e-001 -6.062254e-001 4.622194e-017
    outer loop
      vertex   1.045136e+002 -8.619176e+001 4.000000e+002
      vertex   1.045136e+002 -8.619176e+001 2.000000e+002
      vertex   1.108049e+002 -7.793842e+001 2.000000e+002
    endloop
  endfacet
  facet normal 7.465532e-001 -6.653257e-001 2.843819e-017
    outer loop
      vertex   9.760906e+001 -9.393930e+001 4.000000e+002
      vertex   9.760906e+001 -9.393930e+001 2.000000e+002
      vertex   1.045136e+002 -8.619176e+001 2.000000e+002
    endloop
  endfacet
  facet normal 6.934325e-001 -7.205216e-001 6.008287e-018
    outer loop
      vertex   9.013167e+001 -1.011356e+002 4.000000e+002
      vertex   9.013167e+001 -1.011356e+002 2.000000e+002
      vertex   9.760906e+001 -9.393930e+001 2.000000e+002
    endloop
  endfacet
  facet normal 6.362424e-001 -7.714892e-001 2.855827e-017
    outer loop
      vertex   8.212536e+001 -1.077383e+002 4.000000e+002
      vertex   8.212536e+001 -1.077383e+002 2.000000e+002
      vertex   9.013167e+001 -1.011356e+002 2.000000e+002
    endloop
  endfacet
  facet normal 5.753187e-001 -8.179294e-001 5.272810e-018
    outer loop
      vertex   7.363710e+001 -1.137088e+002 4.000000e+002
      vertex   7.363710e+001 -1.137088e+002 2.000000e+002
      vertex   8.212536e+001 -1.077383e+002 2.000000e+002
    endloop
  endfacet
  facet normal 5.110187e-001 -8.595696e-001 9.962546e-017
    outer loop
      vertex   6.471670e+001 -1.190121e+002 4.000000e+002
      vertex   6.471670e+001 -1.190121e+002 2.000000e+002
      vertex   7.363710e+001 -1.137088e+002 2.000000e+002
    endloop
  endfacet
  facet normal 4.437198e-001 -8.961656e-001 -9.533259e-019
    outer loop
      vertex   5.541653e+001 -1.236169e+002 4.000000e+002
      vertex   5.541653e+001 -1.236169e+002 2.000000e+002
      vertex   6.471670e+001 -1.190121e+002 2.000000e+002
    endloop
  endfacet
  facet normal 3.738171e-001 -9.275025e-001 -9.203074e-017
    outer loop
      vertex   4.579115e+001 -1.274962e+002 4.000000e+002
      vertex   4.579115e+001 -1.274962e+002 2.000000e+002
      vertex   5.541653e+001 -1.236169e+002 2.000000e+002
    endloop
  endfacet
  facet normal 3.017206e-001 -9.533964e-001 -1.088111e-016
    outer loop
      vertex   3.589704e+001 -1.306274e+002 4.000000e+002
      vertex   3.589704e+001 -1.306274e+002 2.000000e+002
      vertex   4.579115e+001 -1.274962e+002 2.000000e+002
    endloop
  endfacet
  facet normal 2.278535e-001 -9.736954e-001 1.227940e-016
    outer loop
      vertex   2.579228e+001 -1.329920e+002 4.000000e+002
      vertex   2.579228e+001 -1.329920e+002 2.000000e+002
      vertex   3.589704e+001 -1.306274e+002 2.000000e+002
    endloop
  endfacet
  facet normal 1.526493e-001 -9.882804e-001 1.340425e-016
    outer loop
      vertex   1.553616e+001 -1.345762e+002 4.000000e+002
      vertex   1.553616e+001 -1.345762e+002 2.000000e+002
      vertex   2.579228e+001 -1.329920e+002 2.000000e+002
    endloop
  endfacet
  facet normal 7.654925e-002 -9.970658e-001 -8.664170e-019
    outer loop
      vertex   5.188871e+000 -1.353706e+002 4.000000e+002
      vertex   5.188871e+000 -1.353706e+002 2.000000e+002
      vertex   1.553616e+001 -1.345762e+002 2.000000e+002
    endloop
  endfacet
  facet normal 5.349058e-015 -1.000000e+000 1.930061e-029
    outer loop
      vertex   -5.188871e+000 -1.353706e+002 4.000000e+002
      vertex   -5.188871e+000 -1.353706e+002 2.000000e+002
      vertex   5.188871e+000 -1.353706e+002 2.000000e+002
    endloop
  endfacet
  facet normal -7.654925e-002 -9.970658e-001 5.344376e-019
    outer loop
      vertex   -1.553616e+001 -1.345762e+002 4.000000e+002
      vertex   -1.553616e+001 -1.345762e+002 2.000000e+002
      vertex   -5.188871e+000 -1.353706e+002 2.000000e+002
    endloop
  endfacet
  facet normal -1.526493e-001 -9.882804e-001 4.609460e-019
    outer loop
      vertex   -2.579228e+001 -1.329920e+002 4.000000e+002
      vertex   -2.579228e+001 -1.329920e+002 2.000000e+002
      vertex   -1.553616e+001 -1.345762e+002 2.000000e+002
    endloop
  endfacet
  facet normal -2.278535e-001 -9.736954e-001 4.428134e-018
    outer loop
      vertex   -3.589704e+001 -1.306274e+002 4.000000e+002
      vertex   -3.589704e+001 -1.306274e+002 2.000000e+002
      vertex   -2.579228e+001 -1.329920e+002 2.000000e+002
    endloop
  endfacet
  facet normal -3.017206e-001 -9.533964e-001 5.732530e-017
    outer loop
      vertex   -4.579115e+001 -1.274962e+002 4.000000e+002
      vertex   -4.579115e+001 -1.274962e+002 2.000000e+002
      vertex   -3.589704e+001 -1.306274e+002 2.000000e+002
    endloop
  endfacet
  facet normal -3.738171e-001 -9.275025e-001 -2.078561e-017
    outer loop
      vertex   -5.541653e+001 -1.236169e+002 4.000000e+002
      vertex   -5.541653e+001 -1.236169e+002 2.000000e+002
      vertex   -4.579115e+001 -1.274962e+002 2.000000e+002
    endloop
  endfacet
  facet normal -4.437198e-001 -8.961656e-001 -1.928514e-017
    outer loop
      vertex   -6.471670e+001 -1.190121e+002 4.000000e+002
      vertex   -6.471670e+001 -1.190121e+002 2.000000e+002
      vertex   -5.541653e+001 -1.236169e+002 2.000000e+002
    endloop
  endfacet
  facet normal -5.110187e-001 -8.595696e-001 1.970794e-019
    outer loop
      vertex   -7.363710e+001 -1.137088e+002 4.000000e+002
      vertex   -7.363710e+001 -1.137088e+002 2.000000e+002
      vertex   -6.471670e+001 -1.190121e+002 2.000000e+002
    endloop
  endfacet
  facet normal -5.753187e-001 -8.179294e-001 -2.259678e-017
    outer loop
      vertex   -8.212536e+001 -1.077383e+002 4.000000e+002
      vertex   -8.212536e+001 -1.077383e+002 2.000000e+002
      vertex   -7.363710e+001 -1.137088e+002 2.000000e+002
    endloop
  endfacet
  facet normal -6.362424e-001 -7.714892e-001 -3.027344e-017
    outer loop
      vertex   -9.013167e+001 -1.011356e+002 4.000000e+002
      vertex   -9.013167e+001 -1.011356e+002 2.000000e+002
      vertex   -8.212536e+001 -1.077383e+002 2.000000e+002
    endloop
  endfacet
  facet normal -6.934325e-001 -7.205216e-001 -5.300037e-017
    outer loop
      vertex   -9.760906e+001 -9.393930e+001 4.000000e+002
      vertex   -9.760906e+001 -9.393930e+001 2.000000e+002
      vertex   -9.013167e+001 -1.011356e+002 2.000000e+002
    endloop
  endfacet
  facet normal -7.465532e-001 -6.653257e-001 -8.910475e-017
    outer loop
      vertex   -1.045136e+002 -8.619176e+001 4.000000e+002
      vertex   -1.045136e+002 -8.619176e+001 2.000000e+002
      vertex   -9.760906e+001 -9.393930e+001 2.000000e+002
    endloop
  endfacet
  facet normal -7.952929e-001 -6.062254e-001 1.895437e-017
    outer loop
      vertex   -1.108049e+002 -7.793842e+001 4.000000e+002
      vertex   -1.108049e+002 -7.793842e+001 2.000000e+002
      vertex   -1.045136e+002 -8.619176e+001 2.000000e+002
    endloop
  endfacet
  facet normal -8.393654e-001 -5.435676e-001 -4.718611e-017
    outer loop
      vertex   -1.164459e+002 -6.922770e+001 4.000000e+002
      vertex   -1.164459e+002 -6.922770e+001 2.000000e+002
      vertex   -1.108049e+002 -7.793842e+001 2.000000e+002
    endloop
  endfacet
  facet normal -8.785123e-001 -4.777198e-001 -1.134843e-016
    outer loop
      vertex   -1.214035e+002 -6.011073e+001 4.000000e+002
      vertex   -1.214035e+002 -6.011073e+001 2.000000e+002
      vertex   -1.164459e+002 -6.922770e+001 2.000000e+002
    endloop
  endfacet
  facet normal -9.125036e-001 -4.090686e-001 -1.058641e-016
    outer loop
      vertex   -1.256488e+002 -5.064100e+001 4.000000e+002
      vertex   -1.256488e+002 -5.064100e+001 2.000000e+002
      vertex   -1.214035e+002 -6.011073e+001 2.000000e+002
    endloop
  endfacet
  facet normal -9.411400e-001 -3.380169e-001 -7.840860e-017
    outer loop
      vertex   -1.291566e+002 -4.087409e+001 4.000000e+002
      vertex   -1.291566e+002 -4.087409e+001 2.000000e+002
      vertex   -1.256488e+002 -5.064100e+001 2.000000e+002
    endloop
  endfacet
  facet normal -9.642535e-001 -2.649815e-001 -8.019528e-017
    outer loop
      vertex   -1.319065e+002 -3.086731e+001 4.000000e+002
      vertex   -1.319065e+002 -3.086731e+001 2.000000e+002
      vertex   -1.291566e+002 -4.087409e+001 2.000000e+002
    endloop
  endfacet
  facet normal -9.817083e-001 -1.903911e-001 8.255743e-018
    outer loop
      vertex   -1.338823e+002 -2.067940e+001 4.000000e+002
      vertex   -1.338823e+002 -2.067940e+001 2.000000e+002
      vertex   -1.319065e+002 -3.086731e+001 2.000000e+002
    endloop
  endfacet
  facet normal -9.934021e-001 -1.146834e-001 3.422435e-017
    outer loop
      vertex   -1.350725e+002 -1.037013e+001 4.000000e+002
      vertex   -1.350725e+002 -1.037013e+001 2.000000e+002
      vertex   -1.338823e+002 -2.067940e+001 2.000000e+002
    endloop
  endfacet
  facet normal -9.992662e-001 -3.830273e-002 -9.258960e-017
    outer loop
      vertex   -1.354700e+002 1.659029e-014 4.000000e+002
      vertex   -1.354700e+002 -2.240528e-013 2.000000e+002
      vertex   -1.350725e+002 -1.037013e+001 2.000000e+002
    endloop
  endfacet
  facet normal -9.992662e-001 3.830273e-002 -4.651126e-017
    outer loop
      vertex   -1.350725e+002 1.037013e+001 4.000000e+002
      vertex   -1.350725e+002 1.037013e+001 2.000000e+002
      vertex   -1.354700e+002 -2.240528e-013 2.000000e+002
    endloop
  endfacet
  facet normal -9.934021e-001 1.146834e-001 3.242190e-017
    outer loop
      vertex   -1.338823e+002 2.067940e+001 4.000000e+002
      vertex   -1.338823e+002 2.067940e+001 2.000000e+002
      vertex   -1.350725e+002 1.037013e+001 2.000000e+002
    endloop
  endfacet
  facet normal -9.817083e-001 1.903911e-001 -3.880684e-017
    outer loop
      vertex   -1.319065e+002 3.086731e+001 4.000000e+002
      vertex   -1.319065e+002 3.086731e+001 2.000000e+002
      vertex   -1.338823e+002 2.067940e+001 2.000000e+002
    endloop
  endfacet
  facet normal -9.642535e-001 2.649815e-001 -1.052112e-016
    outer loop
      vertex   -1.291566e+002 4.087409e+001 4.000000e+002
      vertex   -1.291566e+002 4.087409e+001 2.000000e+002
      vertex   -1.319065e+002 3.086731e+001 2.000000e+002
    endloop
  endfacet
  facet normal -9.411400e-001 3.380169e-001 -6.875496e-017
    outer loop
      vertex   -1.256488e+002 5.064100e+001 4.000000e+002
      vertex   -1.256488e+002 5.064100e+001 2.000000e+002
      vertex   -1.291566e+002 4.087409e+001 2.000000e+002
    endloop
  endfacet
  facet normal -9.125036e-001 4.090686e-001 -3.712574e-017
    outer loop
      vertex   -1.214035e+002 6.011073e+001 4.000000e+002
      vertex   -1.214035e+002 6.011073e+001 2.000000e+002
      vertex   -1.256488e+002 5.064100e+001 2.000000e+002
    endloop
  endfacet
  facet normal -8.785123e-001 4.777198e-001 -7.163485e-017
    outer loop
      vertex   -1.164459e+002 6.922770e+001 4.000000e+002
      vertex   -1.164459e+002 6.922770e+001 2.000000e+002
      vertex   -1.214035e+002 6.011073e+001 2.000000e+002
    endloop
  endfacet
  facet normal -8.393654e-001 5.435676e-001 -2.263055e-016
    outer loop
      vertex   -1.108049e+002 7.793842e+001 4.000000e+002
      vertex   -1.108049e+002 7.793842e+001 2.000000e+002
      vertex   -1.164459e+002 6.922770e+001 2.000000e+002
    endloop
  endfacet
  facet normal -7.952929e-001 6.062254e-001 -1.130768e-016
    outer loop
      vertex   -1.045136e+002 8.619176e+001 4.000000e+002
      vertex   -1.045136e+002 8.619176e+001 2.000000e+002
      vertex   -1.108049e+002 7.793842e+001 2.000000e+002
    endloop
  endfacet
  facet normal -7.465532e-001 6.653257e-001 -1.441350e-016
    outer loop
      vertex   -9.760906e+001 9.393930e+001 4.000000e+002
      vertex   -9.760906e+001 9.393930e+001 2.000000e+002
      vertex   -1.045136e+002 8.619176e+001 2.000000e+002
    endloop
  endfacet
  facet normal -6.934325e-001 7.205216e-001 -9.811277e-017
    outer loop
      vertex   -9.013167e+001 1.011356e+002 4.000000e+002
      vertex   -9.013167e+001 1.011356e+002 2.000000e+002
      vertex   -9.760906e+001 9.393930e+001 2.000000e+002
    endloop
  endfacet
  facet normal -6.362424e-001 7.714892e-001 -1.512138e-016
    outer loop
      vertex   -8.212536e+001 1.077383e+002 4.000000e+002
      vertex   -8.212536e+001 1.077383e+002 2.000000e+002
      vertex   -9.013167e+001 1.011356e+002 2.000000e+002
    endloop
  endfacet
  facet normal -5.753187e-001 8.179294e-001 -1.029278e-016
    outer loop
      vertex   -7.363710e+001 1.137088e+002 4.000000e+002
      vertex   -7.363710e+001 1.137088e+002 2.000000e+002
      vertex   -8.212536e+001 1.077383e+002 2.000000e+002
    endloop
  endfacet
  facet normal -5.110187e-001 8.595696e-001 -8.219155e-017
    outer loop
      vertex   -6.471670e+001 1.190121e+002 4.000000e+002
      vertex   -6.471670e+001 1.190121e+002 2.000000e+002
      vertex   -7.363710e+001 1.137088e+002 2.000000e+002
    endloop
  endfacet
  facet normal -4.437198e-001 8.961656e-001 -1.379461e-016
    outer loop
      vertex   -5.541653e+001 1.236169e+002 4.000000e+002
      vertex   -5.541653e+001 1.236169e+002 2.000000e+002
      vertex   -6.471670e+001 1.190121e+002 2.000000e+002
    endloop
  endfacet
  facet normal -3.738171e-001 9.275025e-001 -1.686020e-016
    outer loop
      vertex   -4.579115e+001 1.274962e+002 4.000000e+002
      vertex   -4.579115e+001 1.274962e+002 2.000000e+002
      vertex   -5.541653e+001 1.236169e+002 2.000000e+002
    endloop
  endfacet
  facet normal -3.017206e-001 9.533964e-001 -1.465525e-016
    outer loop
      vertex   -3.589704e+001 1.306274e+002 4.000000e+002
      vertex   -3.589704e+001 1.306274e+002 2.000000e+002
      vertex   -4.579115e+001 1.274962e+002 2.000000e+002
    endloop
  endfacet
  facet normal -2.278535e-001 9.736954e-001 -2.062747e-016
    outer loop
      vertex   -2.579228e+001 1.329920e+002 4.000000e+002
      vertex   -2.579228e+001 1.329920e+002 2.000000e+002
      vertex   -3.589704e+001 1.306274e+002 2.000000e+002
    endloop
  endfacet
  facet normal -1.526493e-001 9.882804e-001 -1.834922e-016
    outer loop
      vertex   -1.553616e+001 1.345762e+002 4.000000e+002
      vertex   -1.553616e+001 1.345762e+002 2.000000e+002
      vertex   -2.579228e+001 1.329920e+002 2.000000e+002
    endloop
  endfacet
  facet normal -7.654925e-002 9.970658e-001 -1.616092e-016
    outer loop
      vertex   -5.188871e+000 1.353706e+002 4.000000e+002
      vertex   -5.188871e+000 1.353706e+002 2.000000e+002
      vertex   -1.553616e+001 1.345762e+002 2.000000e+002
    endloop
  endfacet
  facet normal 0.000000e+000 1.000000e+000 -1.387779e-016
    outer loop
      vertex   5.188871e+000 1.353706e+002 4.000000e+002
      vertex   5.188871e+000 1.353706e+002 2.000000e+002
      vertex   -5.188871e+000 1.353706e+002 2.000000e+002
    endloop
  endfacet
  facet normal 7.654925e-002 9.970658e-001 -1.164600e-016
    outer loop
      vertex   1.553616e+001 1.345762e+002 4.000000e+002
      vertex   1.553616e+001 1.345762e+002 2.000000e+002
      vertex   5.188871e+000 1.353706e+002 2.000000e+002
    endloop
  endfacet
  facet normal 1.526493e-001 9.882804e-001 -1.186152e-016
    outer loop
      vertex   2.579228e+001 1.329920e+002 4.000000e+002
      vertex   2.579228e+001 1.329920e+002 2.000000e+002
      vertex   1.553616e+001 1.345762e+002 2.000000e+002
    endloop
  endfacet
  facet normal 2.278535e-001 9.736954e-001 -1.035064e-016
    outer loop
      vertex   3.589704e+001 1.306274e+002 4.000000e+002
      vertex   3.589704e+001 1.306274e+002 2.000000e+002
      vertex   2.579228e+001 1.329920e+002 2.000000e+002
    endloop
  endfacet
  facet normal 3.017206e-001 9.533964e-001 -1.009062e-016
    outer loop
      vertex   4.579115e+001 1.274962e+002 4.000000e+002
      vertex   4.579115e+001 1.274962e+002 2.000000e+002
      vertex   3.589704e+001 1.306274e+002 2.000000e+002
    endloop
  endfacet
  facet normal 3.738171e-001 9.275025e-001 -1.671365e-016
    outer loop
      vertex   5.541653e+001 1.236169e+002 4.000000e+002
      vertex   5.541653e+001 1.236169e+002 2.000000e+002
      vertex   4.579115e+001 1.274962e+002 2.000000e+002
    endloop
  endfacet
  facet normal 4.437198e-001 8.961656e-001 -1.557627e-016
    outer loop
      vertex   6.471670e+001 1.190121e+002 4.000000e+002
      vertex   6.471670e+001 1.190121e+002 2.000000e+002
      vertex   5.541653e+001 1.236169e+002 2.000000e+002
    endloop
  endfacet
  facet normal 5.110187e-001 8.595696e-001 -5.964462e-017
    outer loop
      vertex   7.363710e+001 1.137088e+002 4.000000e+002
      vertex   7.363710e+001 1.137088e+002 2.000000e+002
      vertex   6.471670e+001 1.190121e+002 2.000000e+002
    endloop
  endfacet
  facet normal 5.753187e-001 8.179294e-001 -1.702658e-016
    outer loop
      vertex   8.212536e+001 1.077383e+002 4.000000e+002
      vertex   8.212536e+001 1.077383e+002 2.000000e+002
      vertex   7.363710e+001 1.137088e+002 2.000000e+002
    endloop
  endfacet
  facet normal 6.362424e-001 7.714892e-001 -5.353282e-017
    outer loop
      vertex   9.013167e+001 1.011356e+002 4.000000e+002
      vertex   9.013167e+001 1.011356e+002 2.000000e+002
      vertex   8.212536e+001 1.077383e+002 2.000000e+002
    endloop
  endfacet
  facet normal 6.934325e-001 7.205216e-001 -1.481090e-016
    outer loop
      vertex   9.760906e+001 9.393930e+001 4.000000e+002
      vertex   9.760906e+001 9.393930e+001 2.000000e+002
      vertex   9.013167e+001 1.011356e+002 2.000000e+002
    endloop
  endfacet
  facet normal 7.465532e-001 6.653257e-001 -1.497713e-016
    outer loop
      vertex   1.045136e+002 8.619176e+001 4.000000e+002
      vertex   1.045136e+002 8.619176e+001 2.000000e+002
      vertex   9.760906e+001 9.393930e+001 2.000000e+002
    endloop
  endfacet
  facet normal 7.952929e-001 6.062254e-001 -2.076189e-016
    outer loop
      vertex   1.108049e+002 7.793842e+001 4.000000e+002
      vertex   1.108049e+002 7.793842e+001 2.000000e+002
      vertex   1.045136e+002 8.619176e+001 2.000000e+002
    endloop
  endfacet
  facet normal 8.393654e-001 5.435676e-001 -1.747280e-016
    outer loop
      vertex   1.164459e+002 6.922770e+001 4.000000e+002
      vertex   1.164459e+002 6.922770e+001 2.000000e+002
      vertex   1.108049e+002 7.793842e+001 2.000000e+002
    endloop
  endfacet
  facet normal 8.785123e-001 4.777198e-001 -1.550665e-016
    outer loop
      vertex   1.214035e+002 6.011073e+001 4.000000e+002
      vertex   1.214035e+002 6.011073e+001 2.000000e+002
      vertex   1.164459e+002 6.922770e+001 2.000000e+002
    endloop
  endfacet
  facet normal 9.125036e-001 4.090686e-001 -4.257726e-017
    outer loop
      vertex   1.256488e+002 5.064100e+001 4.000000e+002
      vertex   1.256488e+002 5.064100e+001 2.000000e+002
      vertex   1.214035e+002 6.011073e+001 2.000000e+002
    endloop
  endfacet
  facet normal 9.411400e-001 3.380169e-001 -1.423367e-016
    outer loop
      vertex   1.291566e+002 4.087409e+001 4.000000e+002
      vertex   1.291566e+002 4.087409e+001 2.000000e+002
      vertex   1.256488e+002 5.064100e+001 2.000000e+002
    endloop
  endfacet
  facet normal 9.642535e-001 2.649815e-001 -1.430104e-016
    outer loop
      vertex   1.319065e+002 3.086731e+001 4.000000e+002
      vertex   1.319065e+002 3.086731e+001 2.000000e+002
      vertex   1.291566e+002 4.087409e+001 2.000000e+002
    endloop
  endfacet
  facet normal 9.817083e-001 1.903911e-001 -1.395422e-016
    outer loop
      vertex   1.338823e+002 2.067940e+001 4.000000e+002
      vertex   1.338823e+002 2.067940e+001 2.000000e+002
      vertex   1.319065e+002 3.086731e+001 2.000000e+002
    endloop
  endfacet
  facet normal 9.934021e-001 1.146834e-001 -1.398517e-016
    outer loop
      vertex   1.350725e+002 1.037013e+001 4.000000e+002
      vertex   1.350725e+002 1.037013e+001 2.000000e+002
      vertex   1.338823e+002 2.067940e+001 2.000000e+002
    endloop
  endfacet
  facet normal 9.992662e-001 3.830273e-002 -1.386760e-016
    outer loop
      vertex   1.354700e+002 0.000000e+000 4.000000e+002
      vertex   1.354700e+002 0.000000e+000 2.000000e+002
      vertex   1.350725e+002 1.037013e+001 2.000000e+002
    endloop
  endfacet
  facet normal 8.655487e-001 3.317723e-002 -4.997246e-001
    outer loop
      vertex   1.350725e+002 1.037013e+001 2.000000e+002
      vertex   1.354700e+002 0.000000e+000 2.000000e+002
      vertex   2.000000e+001 -4.898587e-015 0.000000e+000
    endloop
  endfacet
  facet normal 8.604694e-001 9.933699e-002 -4.997246e-001
    outer loop
      vertex   1.338823e+002 2.067940e+001 2.000000e+002
      vertex   1.350725e+002 1.037013e+001 2.000000e+002
      vertex   1.994132e+001 1.530985e+000 0.000000e+000
    endloop
  endfacet
  facet normal 8.503404e-001 1.649138e-001 -4.997246e-001
    outer loop
      vertex   1.319065e+002 3.086731e+001 2.000000e+002
      vertex   1.338823e+002 2.067940e+001 2.000000e+002
      vertex   1.976561e+001 3.052986e+000 0.000000e+000
    endloop
  endfacet
  facet normal 8.352213e-001 2.295228e-001 -4.997246e-001
    outer loop
      vertex   1.291566e+002 4.087409e+001 2.000000e+002
      vertex   1.319065e+002 3.086731e+001 2.000000e+002
      vertex   1.947391e+001 4.557070e+000 0.000000e+000
    endloop
  endfacet
  facet normal 8.152008e-001 2.927849e-001 -4.997246e-001
    outer loop
      vertex   1.256488e+002 5.064100e+001 2.000000e+002
      vertex   1.291566e+002 4.087409e+001 2.000000e+002
      vertex   1.906793e+001 6.034412e+000 0.000000e+000
    endloop
  endfacet
  facet normal 7.903964e-001 3.543289e-001 -4.997246e-001
    outer loop
      vertex   1.214035e+002 6.011073e+001 2.000000e+002
      vertex   1.256488e+002 5.064100e+001 2.000000e+002
      vertex   1.855005e+001 7.476341e+000 0.000000e+000
    endloop
  endfacet
  facet normal 7.609536e-001 4.137934e-001 -4.997246e-001
    outer loop
      vertex   1.164459e+002 6.922770e+001 2.000000e+002
      vertex   1.214035e+002 6.011073e+001 2.000000e+002
      vertex   1.792331e+001 8.874397e+000 0.000000e+000
    endloop
  endfacet
  facet normal 7.270452e-001 4.708297e-001 -4.997246e-001
    outer loop
      vertex   1.164459e+002 6.922770e+001 2.000000e+002
      vertex   1.719139e+001 1.022037e+001 0.000000e+000
      vertex   1.635859e+001 1.150637e+001 0.000000e+000
    endloop
  endfacet
  facet normal 6.888703e-001 5.251030e-001 -4.997246e-001
    outer loop
      vertex   1.045136e+002 8.619176e+001 2.000000e+002
      vertex   1.108049e+002 7.793842e+001 2.000000e+002
      vertex   1.635859e+001 1.150637e+001 0.000000e+000
    endloop
  endfacet
  facet normal 6.466527e-001 5.762947e-001 -4.997246e-001
    outer loop
      vertex   9.760906e+001 9.393930e+001 2.000000e+002
      vertex   1.045136e+002 8.619176e+001 2.000000e+002
      vertex   1.542978e+001 1.272485e+001 0.000000e+000
    endloop
  endfacet
  facet normal 6.006404e-001 6.241045e-001 -4.997246e-001
    outer loop
      vertex   9.013167e+001 1.011356e+002 2.000000e+002
      vertex   9.760906e+001 9.393930e+001 2.000000e+002
      vertex   1.441043e+001 1.386865e+001 0.000000e+000
    endloop
  endfacet
  facet normal 5.511033e-001 6.682519e-001 -4.997246e-001
    outer loop
      vertex   8.212536e+001 1.077383e+002 2.000000e+002
      vertex   9.013167e+001 1.011356e+002 2.000000e+002
      vertex   1.330651e+001 1.493106e+001 0.000000e+000
    endloop
  endfacet
  facet normal 4.983320e-001 7.084776e-001 -4.997246e-001
    outer loop
      vertex   8.212536e+001 1.077383e+002 2.000000e+002
      vertex   1.212451e+001 1.590586e+001 0.000000e+000
      vertex   1.087135e+001 1.678731e+001 0.000000e+000
    endloop
  endfacet
  facet normal 4.426364e-001 7.445458e-001 -4.997246e-001
    outer loop
      vertex   7.363710e+001 1.137088e+002 2.000000e+002
      vertex   1.087135e+001 1.678731e+001 0.000000e+000
      vertex   9.554396e+000 1.757025e+001 0.000000e+000
    endloop
  endfacet
  facet normal 3.843432e-001 7.762446e-001 -4.997246e-001
    outer loop
      vertex   5.541653e+001 1.236169e+002 2.000000e+002
      vertex   6.471670e+001 1.190121e+002 2.000000e+002
      vertex   9.554396e+000 1.757025e+001 0.000000e+000
    endloop
  endfacet
  facet normal 3.237945e-001 8.033881e-001 -4.997246e-001
    outer loop
      vertex   5.541653e+001 1.236169e+002 2.000000e+002
      vertex   8.181373e+000 1.825007e+001 0.000000e+000
      vertex   6.760338e+000 1.882280e+001 0.000000e+000
    endloop
  endfacet
  facet normal 2.613457e-001 8.258170e-001 -4.997246e-001
    outer loop
      vertex   3.589704e+001 1.306274e+002 2.000000e+002
      vertex   4.579115e+001 1.274962e+002 2.000000e+002
      vertex   6.760338e+000 1.882280e+001 0.000000e+000
    endloop
  endfacet
  facet normal 1.973631e-001 8.433998e-001 -4.997246e-001
    outer loop
      vertex   2.579228e+001 1.329920e+002 2.000000e+002
      vertex   3.589704e+001 1.306274e+002 2.000000e+002
      vertex   5.299630e+000 1.928507e+001 0.000000e+000
    endloop
  endfacet
  facet normal 1.322224e-001 8.560331e-001 -4.997246e-001
    outer loop
      vertex   1.553616e+001 1.345762e+002 2.000000e+002
      vertex   2.579228e+001 1.329920e+002 2.000000e+002
      vertex   3.807822e+000 1.963417e+001 0.000000e+000
    endloop
  endfacet
  facet normal 6.630577e-002 8.636428e-001 -4.997246e-001
    outer loop
      vertex   5.188871e+000 1.353706e+002 2.000000e+002
      vertex   1.553616e+001 1.345762e+002 2.000000e+002
      vertex   2.293669e+000 1.986804e+001 0.000000e+000
    endloop
  endfacet
  facet normal 0.000000e+000 8.661844e-001 -4.997246e-001
    outer loop
      vertex   -5.188871e+000 1.353706e+002 2.000000e+002
      vertex   5.188871e+000 1.353706e+002 2.000000e+002
      vertex   7.660547e-001 1.998532e+001 0.000000e+000
    endloop
  endfacet
  facet normal -6.630577e-002 8.636428e-001 -4.997246e-001
    outer loop
      vertex   -1.553616e+001 1.345762e+002 2.000000e+002
      vertex   -5.188871e+000 1.353706e+002 2.000000e+002
      vertex   -7.660547e-001 1.998532e+001 0.000000e+000
    endloop
  endfacet
  facet normal -1.322224e-001 8.560331e-001 -4.997246e-001
    outer loop
      vertex   -1.553616e+001 1.345762e+002 2.000000e+002
      vertex   -2.293669e+000 1.986804e+001 0.000000e+000
      vertex   -3.807822e+000 1.963417e+001 0.000000e+000
    endloop
  endfacet
  facet normal -1.973631e-001 8.433998e-001 -4.997246e-001
    outer loop
      vertex   -3.589704e+001 1.306274e+002 2.000000e+002
      vertex   -2.579228e+001 1.329920e+002 2.000000e+002
      vertex   -3.807822e+000 1.963417e+001 0.000000e+000
    endloop
  endfacet
  facet normal -2.613457e-001 8.258170e-001 -4.997246e-001
    outer loop
      vertex   -3.589704e+001 1.306274e+002 2.000000e+002
      vertex   -5.299630e+000 1.928507e+001 0.000000e+000
      vertex   -6.760338e+000 1.882280e+001 0.000000e+000
    endloop
  endfacet
  facet normal -3.237945e-001 8.033881e-001 -4.997246e-001
    outer loop
      vertex   -5.541653e+001 1.236169e+002 2.000000e+002
      vertex   -4.579115e+001 1.274962e+002 2.000000e+002
      vertex   -6.760338e+000 1.882280e+001 0.000000e+000
    endloop
  endfacet
  facet normal -3.843432e-001 7.762446e-001 -4.997246e-001
    outer loop
      vertex   -5.541653e+001 1.236169e+002 2.000000e+002
      vertex   -8.181373e+000 1.825007e+001 0.000000e+000
      vertex   -9.554396e+000 1.757025e+001 0.000000e+000
    endloop
  endfacet
  facet normal -4.426364e-001 7.445458e-001 -4.997246e-001
    outer loop
      vertex   -7.363710e+001 1.137088e+002 2.000000e+002
      vertex   -6.471670e+001 1.190121e+002 2.000000e+002
      vertex   -9.554396e+000 1.757025e+001 0.000000e+000
    endloop
  endfacet
  facet normal -4.983320e-001 7.084776e-001 -4.997246e-001
    outer loop
      vertex   -8.212536e+001 1.077383e+002 2.000000e+002
      vertex   -7.363710e+001 1.137088e+002 2.000000e+002
      vertex   -1.087135e+001 1.678731e+001 0.000000e+000
    endloop
  endfacet
  facet normal -5.511033e-001 6.682519e-001 -4.997246e-001
    outer loop
      vertex   -9.013167e+001 1.011356e+002 2.000000e+002
      vertex   -8.212536e+001 1.077383e+002 2.000000e+002
      vertex   -1.212451e+001 1.590586e+001 0.000000e+000
    endloop
  endfacet
  facet normal -6.006404e-001 6.241045e-001 -4.997246e-001
    outer loop
      vertex   -9.760906e+001 9.393930e+001 2.000000e+002
      vertex   -9.013167e+001 1.011356e+002 2.000000e+002
      vertex   -1.330651e+001 1.493106e+001 0.000000e+000
    endloop
  endfacet
  facet normal -6.466527e-001 5.762947e-001 -4.997246e-001
    outer loop
      vertex   -1.045136e+002 8.619176e+001 2.000000e+002
      vertex   -9.760906e+001 9.393930e+001 2.000000e+002
      vertex   -1.441043e+001 1.386865e+001 0.000000e+000
    endloop
  endfacet
  facet normal -6.888703e-001 5.251030e-001 -4.997246e-001
    outer loop
      vertex   -1.108049e+002 7.793842e+001 2.000000e+002
      vertex   -1.045136e+002 8.619176e+001 2.000000e+002
      vertex   -1.542978e+001 1.272485e+001 0.000000e+000
    endloop
  endfacet
  facet normal -7.270452e-001 4.708297e-001 -4.997246e-001
    outer loop
      vertex   -1.108049e+002 7.793842e+001 2.000000e+002
      vertex   -1.635859e+001 1.150637e+001 0.000000e+000
      vertex   -1.719139e+001 1.022037e+001 0.000000e+000
    endloop
  endfacet
  facet normal -7.609536e-001 4.137934e-001 -4.997246e-001
    outer loop
      vertex   -1.164459e+002 6.922770e+001 2.000000e+002
      vertex   -1.719139e+001 1.022037e+001 0.000000e+000
      vertex   -1.792331e+001 8.874397e+000 0.000000e+000
    endloop
  endfacet
  facet normal -7.903964e-001 3.543289e-001 -4.997246e-001
    outer loop
      vertex   -1.214035e+002 6.011073e+001 2.000000e+002
      vertex   -1.792331e+001 8.874397e+000 0.000000e+000
      vertex   -1.855005e+001 7.476341e+000 0.000000e+000
    endloop
  endfacet
  facet normal -8.152008e-001 2.927849e-001 -4.997246e-001
    outer loop
      vertex   -1.291566e+002 4.087409e+001 2.000000e+002
      vertex   -1.256488e+002 5.064100e+001 2.000000e+002
      vertex   -1.855005e+001 7.476341e+000 0.000000e+000
    endloop
  endfacet
  facet normal -8.352213e-001 2.295228e-001 -4.997246e-001
    outer loop
      vertex   -1.291566e+002 4.087409e+001 2.000000e+002
      vertex   -1.906793e+001 6.034412e+000 0.000000e+000
      vertex   -1.947391e+001 4.557070e+000 0.000000e+000
    endloop
  endfacet
  facet normal -8.503404e-001 1.649138e-001 -4.997246e-001
    outer loop
      vertex   -1.319065e+002 3.086731e+001 2.000000e+002
      vertex   -1.947391e+001 4.557070e+000 0.000000e+000
      vertex   -1.976561e+001 3.052986e+000 0.000000e+000
    endloop
  endfacet
  facet normal -8.604694e-001 9.933699e-002 -4.997246e-001
    outer loop
      vertex   -1.350725e+002 1.037013e+001 2.000000e+002
      vertex   -1.338823e+002 2.067940e+001 2.000000e+002
      vertex   -1.976561e+001 3.052986e+000 0.000000e+000
    endloop
  endfacet
  facet normal -8.655487e-001 3.317723e-002 -4.997246e-001
    outer loop
      vertex   -1.350725e+002 1.037013e+001 2.000000e+002
      vertex   -1.994132e+001 1.530985e+000 0.000000e+000
      vertex   -2.000000e+001 -3.307784e-014 0.000000e+000
    endloop
  endfacet
  facet normal -8.655487e-001 -3.317723e-002 -4.997246e-001
    outer loop
      vertex   -1.350725e+002 -1.037013e+001 2.000000e+002
      vertex   -1.354700e+002 -2.240528e-013 2.000000e+002
      vertex   -2.000000e+001 -3.307784e-014 0.000000e+000
    endloop
  endfacet
  facet normal -8.604694e-001 -9.933699e-002 -4.997246e-001
    outer loop
      vertex   -1.338823e+002 -2.067940e+001 2.000000e+002
      vertex   -1.350725e+002 -1.037013e+001 2.000000e+002
      vertex   -1.994132e+001 -1.530985e+000 0.000000e+000
    endloop
  endfacet
  facet normal -8.503404e-001 -1.649138e-001 -4.997246e-001
    outer loop
      vertex   -1.319065e+002 -3.086731e+001 2.000000e+002
      vertex   -1.338823e+002 -2.067940e+001 2.000000e+002
      vertex   -1.976561e+001 -3.052986e+000 0.000000e+000
    endloop
  endfacet
  facet normal -8.352213e-001 -2.295228e-001 -4.997246e-001
    outer loop
      vertex   -1.291566e+002 -4.087409e+001 2.000000e+002
      vertex   -1.319065e+002 -3.086731e+001 2.000000e+002
      vertex   -1.947391e+001 -4.557070e+000 0.000000e+000
    endloop
  endfacet
  facet normal -8.152008e-001 -2.927849e-001 -4.997246e-001
    outer loop
      vertex   -1.291566e+002 -4.087409e+001 2.000000e+002
      vertex   -1.906793e+001 -6.034412e+000 0.000000e+000
      vertex   -1.855005e+001 -7.476341e+000 0.000000e+000
    endloop
  endfacet
  facet normal -7.903964e-001 -3.543289e-001 -4.997246e-001
    outer loop
      vertex   -1.214035e+002 -6.011073e+001 2.000000e+002
      vertex   -1.256488e+002 -5.064100e+001 2.000000e+002
      vertex   -1.855005e+001 -7.476341e+000 0.000000e+000
    endloop
  endfacet
  facet normal -7.609536e-001 -4.137934e-001 -4.997246e-001
    outer loop
      vertex   -1.164459e+002 -6.922770e+001 2.000000e+002
      vertex   -1.214035e+002 -6.011073e+001 2.000000e+002
      vertex   -1.792331e+001 -8.874397e+000 0.000000e+000
    endloop
  endfacet
  facet normal -7.270452e-001 -4.708297e-001 -4.997246e-001
    outer loop
      vertex   -1.108049e+002 -7.793842e+001 2.000000e+002
      vertex   -1.164459e+002 -6.922770e+001 2.000000e+002
      vertex   -1.719139e+001 -1.022037e+001 0.000000e+000
    endloop
  endfacet
  facet normal -6.888703e-001 -5.251030e-001 -4.997246e-001
    outer loop
      vertex   -1.045136e+002 -8.619176e+001 2.000000e+002
      vertex   -1.108049e+002 -7.793842e+001 2.000000e+002
      vertex   -1.635859e+001 -1.150637e+001 0.000000e+000
    endloop
  endfacet
  facet normal -6.466527e-001 -5.762947e-001 -4.997246e-001
    outer loop
      vertex   -9.760906e+001 -9.393930e+001 2.000000e+002
      vertex   -1.045136e+002 -8.619176e+001 2.000000e+002
      vertex   -1.542978e+001 -1.272485e+001 0.000000e+000
    endloop
  endfacet
  facet normal -6.006404e-001 -6.241045e-001 -4.997246e-001
    outer loop
      vertex   -9.013167e+001 -1.011356e+002 2.000000e+002
      vertex   -9.760906e+001 -9.393930e+001 2.000000e+002
      vertex   -1.441043e+001 -1.386865e+001 0.000000e+000
    endloop
  endfacet
  facet normal -5.511033e-001 -6.682519e-001 -4.997246e-001
    outer loop
      vertex   -8.212536e+001 -1.077383e+002 2.000000e+002
      vertex   -9.013167e+001 -1.011356e+002 2.000000e+002
      vertex   -1.330651e+001 -1.493106e+001 0.000000e+000
    endloop
  endfacet
  facet normal -4.983320e-001 -7.084776e-001 -4.997246e-001
    outer loop
      vertex   -7.363710e+001 -1.137088e+002 2.000000e+002
      vertex   -8.212536e+001 -1.077383e+002 2.000000e+002
      vertex   -1.212451e+001 -1.590586e+001 0.000000e+000
    endloop
  endfacet
  facet normal -4.426364e-001 -7.445458e-001 -4.997246e-001
    outer loop
      vertex   -7.363710e+001 -1.137088e+002 2.000000e+002
      vertex   -1.087135e+001 -1.678731e+001 0.000000e+000
      vertex   -9.554396e+000 -1.757025e+001 0.000000e+000
    endloop
  endfacet
  facet normal -3.843432e-001 -7.762446e-001 -4.997246e-001
    outer loop
      vertex   -5.541653e+001 -1.236169e+002 2.000000e+002
      vertex   -6.471670e+001 -1.190121e+002 2.000000e+002
      vertex   -9.554396e+000 -1.757025e+001 0.000000e+000
    endloop
  endfacet
  facet normal -3.237945e-001 -8.033881e-001 -4.997246e-001
    outer loop
      vertex   -5.541653e+001 -1.236169e+002 2.000000e+002
      vertex   -8.181373e+000 -1.825007e+001 0.000000e+000
      vertex   -6.760338e+000 -1.882280e+001 0.000000e+000
    endloop
  endfacet
  facet normal -2.613457e-001 -8.258170e-001 -4.997246e-001
    outer loop
      vertex   -3.589704e+001 -1.306274e+002 2.000000e+002
      vertex   -4.579115e+001 -1.274962e+002 2.000000e+002
      vertex   -6.760338e+000 -1.882280e+001 0.000000e+000
    endloop
  endfacet
  facet normal -1.973631e-001 -8.433998e-001 -4.997246e-001
    outer loop
      vertex   -3.589704e+001 -1.306274e+002 2.000000e+002
      vertex   -5.299630e+000 -1.928507e+001 0.000000e+000
      vertex   -3.807822e+000 -1.963417e+001 0.000000e+000
    endloop
  endfacet
  facet normal -1.322224e-001 -8.560331e-001 -4.997246e-001
    outer loop
      vertex   -1.553616e+001 -1.345762e+002 2.000000e+002
      vertex   -2.579228e+001 -1.329920e+002 2.000000e+002
      vertex   -3.807822e+000 -1.963417e+001 0.000000e+000
    endloop
  endfacet
  facet normal -6.630577e-002 -8.636428e-001 -4.997246e-001
    outer loop
      vertex   -5.188871e+000 -1.353706e+002 2.000000e+002
      vertex   -1.553616e+001 -1.345762e+002 2.000000e+002
      vertex   -2.293669e+000 -1.986804e+001 0.000000e+000
    endloop
  endfacet
  facet normal 4.633271e-015 -8.661844e-001 -4.997246e-001
    outer loop
      vertex   5.188871e+000 -1.353706e+002 2.000000e+002
      vertex   -5.188871e+000 -1.353706e+002 2.000000e+002
      vertex   -7.660547e-001 -1.998532e+001 0.000000e+000
    endloop
  endfacet
  facet normal 6.630577e-002 -8.636428e-001 -4.997246e-001
    outer loop
      vertex   1.553616e+001 -1.345762e+002 2.000000e+002
      vertex   5.188871e+000 -1.353706e+002 2.000000e+002
      vertex   7.660547e-001 -1.998532e+001 0.000000e+000
    endloop
  endfacet
  facet normal 1.322224e-001 -8.560331e-001 -4.997246e-001
    outer loop
      vertex   2.579228e+001 -1.329920e+002 2.000000e+002
      vertex   1.553616e+001 -1.345762e+002 2.000000e+002
      vertex   2.293669e+000 -1.986804e+001 0.000000e+000
    endloop
  endfacet
  facet normal 1.973631e-001 -8.433998e-001 -4.997246e-001
    outer loop
      vertex   3.589704e+001 -1.306274e+002 2.000000e+002
      vertex   2.579228e+001 -1.329920e+002 2.000000e+002
      vertex   3.807822e+000 -1.963417e+001 0.000000e+000
    endloop
  endfacet
  facet normal 2.613457e-001 -8.258170e-001 -4.997246e-001
    outer loop
      vertex   3.589704e+001 -1.306274e+002 2.000000e+002
      vertex   5.299630e+000 -1.928507e+001 0.000000e+000
      vertex   6.760338e+000 -1.882280e+001 0.000000e+000
    endloop
  endfacet
  facet normal 3.237945e-001 -8.033881e-001 -4.997246e-001
    outer loop
      vertex   5.541653e+001 -1.236169e+002 2.000000e+002
      vertex   4.579115e+001 -1.274962e+002 2.000000e+002
      vertex   6.760338e+000 -1.882280e+001 0.000000e+000
    endloop
  endfacet
  facet normal 3.843432e-001 -7.762446e-001 -4.997246e-001
    outer loop
      vertex   6.471670e+001 -1.190121e+002 2.000000e+002
      vertex   5.541653e+001 -1.236169e+002 2.000000e+002
      vertex   8.181373e+000 -1.825007e+001 0.000000e+000
    endloop
  endfacet
  facet normal 4.426364e-001 -7.445458e-001 -4.997246e-001
    outer loop
      vertex   6.471670e+001 -1.190121e+002 2.000000e+002
      vertex   9.554396e+000 -1.757025e+001 0.000000e+000
      vertex   1.087135e+001 -1.678731e+001 0.000000e+000
    endloop
  endfacet
  facet normal 4.983320e-001 -7.084776e-001 -4.997246e-001
    outer loop
      vertex   8.212536e+001 -1.077383e+002 2.000000e+002
      vertex   7.363710e+001 -1.137088e+002 2.000000e+002
      vertex   1.087135e+001 -1.678731e+001 0.000000e+000
    endloop
  endfacet
  facet normal 5.511033e-001 -6.682519e-001 -4.997246e-001
    outer loop
      vertex   9.013167e+001 -1.011356e+002 2.000000e+002
      vertex   8.212536e+001 -1.077383e+002 2.000000e+002
      vertex   1.212451e+001 -1.590586e+001 0.000000e+000
    endloop
  endfacet
  facet normal 6.006404e-001 -6.241045e-001 -4.997246e-001
    outer loop
      vertex   9.760906e+001 -9.393930e+001 2.000000e+002
      vertex   9.013167e+001 -1.011356e+002 2.000000e+002
      vertex   1.330651e+001 -1.493106e+001 0.000000e+000
    endloop
  endfacet
  facet normal 6.466527e-001 -5.762947e-001 -4.997246e-001
    outer loop
      vertex   9.760906e+001 -9.393930e+001 2.000000e+002
      vertex   1.441043e+001 -1.386865e+001 0.000000e+000
      vertex   1.542978e+001 -1.272485e+001 0.000000e+000
    endloop
  endfacet
  facet normal 6.888703e-001 -5.251030e-001 -4.997246e-001
    outer loop
      vertex   1.108049e+002 -7.793842e+001 2.000000e+002
      vertex   1.045136e+002 -8.619176e+001 2.000000e+002
      vertex   1.542978e+001 -1.272485e+001 0.000000e+000
    endloop
  endfacet
  facet normal 7.270452e-001 -4.708297e-001 -4.997246e-001
    outer loop
      vertex   1.108049e+002 -7.793842e+001 2.000000e+002
      vertex   1.635859e+001 -1.150637e+001 0.000000e+000
      vertex   1.719139e+001 -1.022037e+001 0.000000e+000
    endloop
  endfacet
  facet normal 7.609536e-001 -4.137934e-001 -4.997246e-001
    outer loop
      vertex   1.214035e+002 -6.011073e+001 2.000000e+002
      vertex   1.164459e+002 -6.922770e+001 2.000000e+002
      vertex   1.719139e+001 -1.022037e+001 0.000000e+000
    endloop
  endfacet
  facet normal 7.903964e-001 -3.543289e-001 -4.997246e-001
    outer loop
      vertex   1.214035e+002 -6.011073e+001 2.000000e+002
      vertex   1.792331e+001 -8.874397e+000 0.000000e+000
      vertex   1.855005e+001 -7.476341e+000 0.000000e+000
    endloop
  endfacet
  facet normal 8.152008e-001 -2.927849e-001 -4.997246e-001
    outer loop
      vertex   1.256488e+002 -5.064100e+001 2.000000e+002
      vertex   1.855005e+001 -7.476341e+000 0.000000e+000
      vertex   1.906793e+001 -6.034412e+000 0.000000e+000
    endloop
  endfacet
  facet normal 8.352213e-001 -2.295228e-001 -4.997246e-001
    outer loop
      vertex   1.319065e+002 -3.086731e+001 2.000000e+002
      vertex   1.291566e+002 -4.087409e+001 2.000000e+002
      vertex   1.906793e+001 -6.034412e+000 0.000000e+000
    endloop
  endfacet
  facet normal 8.503404e-001 -1.649138e-001 -4.997246e-001
    outer loop
      vertex   1.319065e+002 -3.086731e+001 2.000000e+002
      vertex   1.947391e+001 -4.557070e+000 0.000000e+000
      vertex   1.976561e+001 -3.052986e+000 0.000000e+000
    endloop
  endfacet
  facet normal 8.604694e-001 -9.933699e-002 -4.997246e-001
    outer loop
      vertex   1.350725e+002 -1.037013e+001 2.000000e+002
      vertex   1.338823e+002 -2.067940e+001 2.000000e+002
      vertex   1.976561e+001 -3.052986e+000 0.000000e+000
    endloop
  endfacet
  facet normal 8.655487e-001 -3.317723e-002 -4.997246e-001
    outer loop
      vertex   1.350725e+002 -1.037013e+001 2.000000e+002
      vertex   1.994132e+001 -1.530985e+000 0.000000e+000
      vertex   2.000000e+001 -4.898587e-015 0.000000e+000
    endloop
  endfacet
  facet normal 8.655487e-001 -3.317723e-002 -4.997246e-001
    outer loop
      vertex   2.000000e+001 -4.898587e-015 0.000000e+000
      vertex   1.354700e+002 0.000000e+000 2.000000e+002
      vertex   1.350725e+002 -1.037013e+001 2.000000e+002
    endloop
  endfacet
  facet normal 8.604694e-001 -9.933699e-002 -4.997246e-001
    outer loop
      vertex   1.976561e+001 -3.052986e+000 0.000000e+000
      vertex   1.994132e+001 -1.530985e+000 0.000000e+000
      vertex   1.350725e+002 -1.037013e+001 2.000000e+002
    endloop
  endfacet
  facet normal 8.503404e-001 -1.649138e-001 -4.997246e-001
    outer loop
      vertex   1.976561e+001 -3.052986e+000 0.000000e+000
      vertex   1.338823e+002 -2.067940e+001 2.000000e+002
      vertex   1.319065e+002 -3.086731e+001 2.000000e+002
    endloop
  endfacet
  facet normal 8.352213e-001 -2.295228e-001 -4.997246e-001
    outer loop
      vertex   1.906793e+001 -6.034412e+000 0.000000e+000
      vertex   1.947391e+001 -4.557070e+000 0.000000e+000
      vertex   1.319065e+002 -3.086731e+001 2.000000e+002
    endloop
  endfacet
  facet normal 8.152008e-001 -2.927849e-001 -4.997246e-001
    outer loop
      vertex   1.906793e+001 -6.034412e+000 0.000000e+000
      vertex   1.291566e+002 -4.087409e+001 2.000000e+002
      vertex   1.256488e+002 -5.064100e+001 2.000000e+002
    endloop
  endfacet
  facet normal 7.903964e-001 -3.543289e-001 -4.997246e-001
    outer loop
      vertex   1.855005e+001 -7.476341e+000 0.000000e+000
      vertex   1.256488e+002 -5.064100e+001 2.000000e+002
      vertex   1.214035e+002 -6.011073e+001 2.000000e+002
    endloop
  endfacet
  facet normal 7.609536e-001 -4.137934e-001 -4.997246e-001
    outer loop
      vertex   1.719139e+001 -1.022037e+001 0.000000e+000
      vertex   1.792331e+001 -8.874397e+000 0.000000e+000
      vertex   1.214035e+002 -6.011073e+001 2.000000e+002
    endloop
  endfacet
  facet normal 7.270452e-001 -4.708297e-001 -4.997246e-001
    outer loop
      vertex   1.719139e+001 -1.022037e+001 0.000000e+000
      vertex   1.164459e+002 -6.922770e+001 2.000000e+002
      vertex   1.108049e+002 -7.793842e+001 2.000000e+002
    endloop
  endfacet
  facet normal 6.888703e-001 -5.251030e-001 -4.997246e-001
    outer loop
      vertex   1.542978e+001 -1.272485e+001 0.000000e+000
      vertex   1.635859e+001 -1.150637e+001 0.000000e+000
      vertex   1.108049e+002 -7.793842e+001 2.000000e+002
    endloop
  endfacet
  facet normal 6.466527e-001 -5.762947e-001 -4.997246e-001
    outer loop
      vertex   1.542978e+001 -1.272485e+001 0.000000e+000
      vertex   1.045136e+002 -8.619176e+001 2.000000e+002
      vertex   9.760906e+001 -9.393930e+001 2.000000e+002
    endloop
  endfacet
  facet normal 6.006404e-001 -6.241045e-001 -4.997246e-001
    outer loop
      vertex   1.330651e+001 -1.493106e+001 0.000000e+000
      vertex   1.441043e+001 -1.386865e+001 0.000000e+000
      vertex   9.760906e+001 -9.393930e+001 2.000000e+002
    endloop
  endfacet
  facet normal 5.511033e-001 -6.682519e-001 -4.997246e-001
    outer loop
      vertex   1.212451e+001 -1.590586e+001 0.000000e+000
      vertex   1.330651e+001 -1.493106e+001 0.000000e+000
      vertex   9.013167e+001 -1.011356e+002 2.000000e+002
    endloop
  endfacet
  facet normal 4.983320e-001 -7.084776e-001 -4.997246e-001
    outer loop
      vertex   1.087135e+001 -1.678731e+001 0.000000e+000
      vertex   1.212451e+001 -1.590586e+001 0.000000e+000
      vertex   8.212536e+001 -1.077383e+002 2.000000e+002
    endloop
  endfacet
  facet normal 4.426364e-001 -7.445458e-001 -4.997246e-001
    outer loop
      vertex   1.087135e+001 -1.678731e+001 0.000000e+000
      vertex   7.363710e+001 -1.137088e+002 2.000000e+002
      vertex   6.471670e+001 -1.190121e+002 2.000000e+002
    endloop
  endfacet
  facet normal 3.843432e-001 -7.762446e-001 -4.997246e-001
    outer loop
      vertex   8.181373e+000 -1.825007e+001 0.000000e+000
      vertex   9.554396e+000 -1.757025e+001 0.000000e+000
      vertex   6.471670e+001 -1.190121e+002 2.000000e+002
    endloop
  endfacet
  facet normal 3.237945e-001 -8.033881e-001 -4.997246e-001
    outer loop
      vertex   6.760338e+000 -1.882280e+001 0.000000e+000
      vertex   8.181373e+000 -1.825007e+001 0.000000e+000
      vertex   5.541653e+001 -1.236169e+002 2.000000e+002
    endloop
  endfacet
  facet normal 2.613457e-001 -8.258170e-001 -4.997246e-001
    outer loop
      vertex   6.760338e+000 -1.882280e+001 0.000000e+000
      vertex   4.579115e+001 -1.274962e+002 2.000000e+002
      vertex   3.589704e+001 -1.306274e+002 2.000000e+002
    endloop
  endfacet
  facet normal 1.973631e-001 -8.433998e-001 -4.997246e-001
    outer loop
      vertex   3.807822e+000 -1.963417e+001 0.000000e+000
      vertex   5.299630e+000 -1.928507e+001 0.000000e+000
      vertex   3.589704e+001 -1.306274e+002 2.000000e+002
    endloop
  endfacet
  facet normal 1.322224e-001 -8.560331e-001 -4.997246e-001
    outer loop
      vertex   2.293669e+000 -1.986804e+001 0.000000e+000
      vertex   3.807822e+000 -1.963417e+001 0.000000e+000
      vertex   2.579228e+001 -1.329920e+002 2.000000e+002
    endloop
  endfacet
  facet normal 6.630577e-002 -8.636428e-001 -4.997246e-001
    outer loop
      vertex   7.660547e-001 -1.998532e+001 0.000000e+000
      vertex   2.293669e+000 -1.986804e+001 0.000000e+000
      vertex   1.553616e+001 -1.345762e+002 2.000000e+002
    endloop
  endfacet
  facet normal 5.884399e-015 -8.661844e-001 -4.997246e-001
    outer loop
      vertex   -7.660547e-001 -1.998532e+001 0.000000e+000
      vertex   7.660547e-001 -1.998532e+001 0.000000e+000
      vertex   5.188871e+000 -1.353706e+002 2.000000e+002
    endloop
  endfacet
  facet normal -6.630577e-002 -8.636428e-001 -4.997246e-001
    outer loop
      vertex   -2.293669e+000 -1.986804e+001 0.000000e+000
      vertex   -7.660547e-001 -1.998532e+001 0.000000e+000
      vertex   -5.188871e+000 -1.353706e+002 2.000000e+002
    endloop
  endfacet
  facet normal -1.322224e-001 -8.560331e-001 -4.997246e-001
    outer loop
      vertex   -3.807822e+000 -1.963417e+001 0.000000e+000
      vertex   -2.293669e+000 -1.986804e+001 0.000000e+000
      vertex   -1.553616e+001 -1.345762e+002 2.000000e+002
    endloop
  endfacet
  facet normal -1.973631e-001 -8.433998e-001 -4.997246e-001
    outer loop
      vertex   -3.807822e+000 -1.963417e+001 0.000000e+000
      vertex   -2.579228e+001 -1.329920e+002 2.000000e+002
      vertex   -3.589704e+001 -1.306274e+002 2.000000e+002
    endloop
  endfacet
  facet normal -2.613457e-001 -8.258170e-001 -4.997246e-001
    outer loop
      vertex   -6.760338e+000 -1.882280e+001 0.000000e+000
      vertex   -5.299630e+000 -1.928507e+001 0.000000e+000
      vertex   -3.589704e+001 -1.306274e+002 2.000000e+002
    endloop
  endfacet
  facet normal -3.237945e-001 -8.033881e-001 -4.997246e-001
    outer loop
      vertex   -6.760338e+000 -1.882280e+001 0.000000e+000
      vertex   -4.579115e+001 -1.274962e+002 2.000000e+002
      vertex   -5.541653e+001 -1.236169e+002 2.000000e+002
    endloop
  endfacet
  facet normal -3.843432e-001 -7.762446e-001 -4.997246e-001
    outer loop
      vertex   -9.554396e+000 -1.757025e+001 0.000000e+000
      vertex   -8.181373e+000 -1.825007e+001 0.000000e+000
      vertex   -5.541653e+001 -1.236169e+002 2.000000e+002
    endloop
  endfacet
  facet normal -4.426364e-001 -7.445458e-001 -4.997246e-001
    outer loop
      vertex   -9.554396e+000 -1.757025e+001 0.000000e+000
      vertex   -6.471670e+001 -1.190121e+002 2.000000e+002
      vertex   -7.363710e+001 -1.137088e+002 2.000000e+002
    endloop
  endfacet
  facet normal -4.983320e-001 -7.084776e-001 -4.997246e-001
    outer loop
      vertex   -1.212451e+001 -1.590586e+001 0.000000e+000
      vertex   -1.087135e+001 -1.678731e+001 0.000000e+000
      vertex   -7.363710e+001 -1.137088e+002 2.000000e+002
    endloop
  endfacet
  facet normal -5.511033e-001 -6.682519e-001 -4.997246e-001
    outer loop
      vertex   -1.330651e+001 -1.493106e+001 0.000000e+000
      vertex   -1.212451e+001 -1.590586e+001 0.000000e+000
      vertex   -8.212536e+001 -1.077383e+002 2.000000e+002
    endloop
  endfacet
  facet normal -6.006404e-001 -6.241045e-001 -4.997246e-001
    outer loop
      vertex   -1.441043e+001 -1.386865e+001 0.000000e+000
      vertex   -1.330651e+001 -1.493106e+001 0.000000e+000
      vertex   -9.013167e+001 -1.011356e+002 2.000000e+002
    endloop
  endfacet
  facet normal -6.466527e-001 -5.762947e-001 -4.997246e-001
    outer loop
      vertex   -1.542978e+001 -1.272485e+001 0.000000e+000
      vertex   -1.441043e+001 -1.386865e+001 0.000000e+000
      vertex   -9.760906e+001 -9.393930e+001 2.000000e+002
    endloop
  endfacet
  facet normal -6.888703e-001 -5.251030e-001 -4.997246e-001
    outer loop
      vertex   -1.635859e+001 -1.150637e+001 0.000000e+000
      vertex   -1.542978e+001 -1.272485e+001 0.000000e+000
      vertex   -1.045136e+002 -8.619176e+001 2.000000e+002
    endloop
  endfacet
  facet normal -7.270452e-001 -4.708297e-001 -4.997246e-001
    outer loop
      vertex   -1.719139e+001 -1.022037e+001 0.000000e+000
      vertex   -1.635859e+001 -1.150637e+001 0.000000e+000
      vertex   -1.108049e+002 -7.793842e+001 2.000000e+002
    endloop
  endfacet
  facet normal -7.609536e-001 -4.137934e-001 -4.997246e-001
    outer loop
      vertex   -1.792331e+001 -8.874397e+000 0.000000e+000
      vertex   -1.719139e+001 -1.022037e+001 0.000000e+000
      vertex   -1.164459e+002 -6.922770e+001 2.000000e+002
    endloop
  endfacet
  facet normal -7.903964e-001 -3.543289e-001 -4.997246e-001
    outer loop
      vertex   -1.855005e+001 -7.476341e+000 0.000000e+000
      vertex   -1.792331e+001 -8.874397e+000 0.000000e+000
      vertex   -1.214035e+002 -6.011073e+001 2.000000e+002
    endloop
  endfacet
  facet normal -8.152008e-001 -2.927849e-001 -4.997246e-001
    outer loop
      vertex   -1.855005e+001 -7.476341e+000 0.000000e+000
      vertex   -1.256488e+002 -5.064100e+001 2.000000e+002
      vertex   -1.291566e+002 -4.087409e+001 2.000000e+002
    endloop
  endfacet
  facet normal -8.352213e-001 -2.295228e-001 -4.997246e-001
    outer loop
      vertex   -1.947391e+001 -4.557070e+000 0.000000e+000
      vertex   -1.906793e+001 -6.034412e+000 0.000000e+000
      vertex   -1.291566e+002 -4.087409e+001 2.000000e+002
    endloop
  endfacet
  facet normal -8.503404e-001 -1.649138e-001 -4.997246e-001
    outer loop
      vertex   -1.976561e+001 -3.052986e+000 0.000000e+000
      vertex   -1.947391e+001 -4.557070e+000 0.000000e+000
      vertex   -1.319065e+002 -3.086731e+001 2.000000e+002
    endloop
  endfacet
  facet normal -8.604694e-001 -9.933699e-002 -4.997246e-001
    outer loop
      vertex   -1.994132e+001 -1.530985e+000 0.000000e+000
      vertex   -1.976561e+001 -3.052986e+000 0.000000e+000
      vertex   -1.338823e+002 -2.067940e+001 2.000000e+002
    endloop
  endfacet
  facet normal -8.655487e-001 -3.317723e-002 -4.997246e-001
    outer loop
      vertex   -2.000000e+001 -3.307784e-014 0.000000e+000
      vertex   -1.994132e+001 -1.530985e+000 0.000000e+000
      vertex   -1.350725e+002 -1.037013e+001 2.000000e+002
    endloop
  endfacet
  facet normal -8.655487e-001 3.317723e-002 -4.997246e-001
    outer loop
      vertex   -2.000000e+001 -3.307784e-014 0.000000e+000
      vertex   -1.354700e+002 -2.240528e-013 2.000000e+002
      vertex   -1.350725e+002 1.037013e+001 2.000000e+002
    endloop
  endfacet
  facet normal -8.604694e-001 9.933699e-002 -4.997246e-001
    outer loop
      vertex   -1.976561e+001 3.052986e+000 0.000000e+000
      vertex   -1.994132e+001 1.530985e+000 0.000000e+000
      vertex   -1.350725e+002 1.037013e+001 2.000000e+002
    endloop
  endfacet
  facet normal -8.503404e-001 1.649138e-001 -4.997246e-001
    outer loop
      vertex   -1.976561e+001 3.052986e+000 0.000000e+000
      vertex   -1.338823e+002 2.067940e+001 2.000000e+002
      vertex   -1.319065e+002 3.086731e+001 2.000000e+002
    endloop
  endfacet
  facet normal -8.352213e-001 2.295228e-001 -4.997246e-001
    outer loop
      vertex   -1.947391e+001 4.557070e+000 0.000000e+000
      vertex   -1.319065e+002 3.086731e+001 2.000000e+002
      vertex   -1.291566e+002 4.087409e+001 2.000000e+002
    endloop
  endfacet
  facet normal -8.152008e-001 2.927849e-001 -4.997246e-001
    outer loop
      vertex   -1.855005e+001 7.476341e+000 0.000000e+000
      vertex   -1.906793e+001 6.034412e+000 0.000000e+000
      vertex   -1.291566e+002 4.087409e+001 2.000000e+002
    endloop
  endfacet
  facet normal -7.903964e-001 3.543289e-001 -4.997246e-001
    outer loop
      vertex   -1.855005e+001 7.476341e+000 0.000000e+000
      vertex   -1.256488e+002 5.064100e+001 2.000000e+002
      vertex   -1.214035e+002 6.011073e+001 2.000000e+002
    endloop
  endfacet
  facet normal -7.609536e-001 4.137934e-001 -4.997246e-001
    outer loop
      vertex   -1.792331e+001 8.874397e+000 0.000000e+000
      vertex   -1.214035e+002 6.011073e+001 2.000000e+002
      vertex   -1.164459e+002 6.922770e+001 2.000000e+002
    endloop
  endfacet
  facet normal -7.270452e-001 4.708297e-001 -4.997246e-001
    outer loop
      vertex   -1.719139e+001 1.022037e+001 0.000000e+000
      vertex   -1.164459e+002 6.922770e+001 2.000000e+002
      vertex   -1.108049e+002 7.793842e+001 2.000000e+002
    endloop
  endfacet
  facet normal -6.888703e-001 5.251030e-001 -4.997246e-001
    outer loop
      vertex   -1.542978e+001 1.272485e+001 0.000000e+000
      vertex   -1.635859e+001 1.150637e+001 0.000000e+000
      vertex   -1.108049e+002 7.793842e+001 2.000000e+002
    endloop
  endfacet
  facet normal -6.466527e-001 5.762947e-001 -4.997246e-001
    outer loop
      vertex   -1.441043e+001 1.386865e+001 0.000000e+000
      vertex   -1.542978e+001 1.272485e+001 0.000000e+000
      vertex   -1.045136e+002 8.619176e+001 2.000000e+002
    endloop
  endfacet
  facet normal -6.006404e-001 6.241045e-001 -4.997246e-001
    outer loop
      vertex   -1.330651e+001 1.493106e+001 0.000000e+000
      vertex   -1.441043e+001 1.386865e+001 0.000000e+000
      vertex   -9.760906e+001 9.393930e+001 2.000000e+002
    endloop
  endfacet
  facet normal -5.511033e-001 6.682519e-001 -4.997246e-001
    outer loop
      vertex   -1.212451e+001 1.590586e+001 0.000000e+000
      vertex   -1.330651e+001 1.493106e+001 0.000000e+000
      vertex   -9.013167e+001 1.011356e+002 2.000000e+002
    endloop
  endfacet
  facet normal -4.983320e-001 7.084776e-001 -4.997246e-001
    outer loop
      vertex   -1.087135e+001 1.678731e+001 0.000000e+000
      vertex   -1.212451e+001 1.590586e+001 0.000000e+000
      vertex   -8.212536e+001 1.077383e+002 2.000000e+002
    endloop
  endfacet
  facet normal -4.426364e-001 7.445458e-001 -4.997246e-001
    outer loop
      vertex   -9.554396e+000 1.757025e+001 0.000000e+000
      vertex   -1.087135e+001 1.678731e+001 0.000000e+000
      vertex   -7.363710e+001 1.137088e+002 2.000000e+002
    endloop
  endfacet
  facet normal -3.843432e-001 7.762446e-001 -4.997246e-001
    outer loop
      vertex   -9.554396e+000 1.757025e+001 0.000000e+000
      vertex   -6.471670e+001 1.190121e+002 2.000000e+002
      vertex   -5.541653e+001 1.236169e+002 2.000000e+002
    endloop
  endfacet
  facet normal -3.237945e-001 8.033881e-001 -4.997246e-001
    outer loop
      vertex   -6.760338e+000 1.882280e+001 0.000000e+000
      vertex   -8.181373e+000 1.825007e+001 0.000000e+000
      vertex   -5.541653e+001 1.236169e+002 2.000000e+002
    endloop
  endfacet
  facet normal -2.613457e-001 8.258170e-001 -4.997246e-001
    outer loop
      vertex   -6.760338e+000 1.882280e+001 0.000000e+000
      vertex   -4.579115e+001 1.274962e+002 2.000000e+002
      vertex   -3.589704e+001 1.306274e+002 2.000000e+002
    endloop
  endfacet
  facet normal -1.973631e-001 8.433998e-001 -4.997246e-001
    outer loop
      vertex   -3.807822e+000 1.963417e+001 0.000000e+000
      vertex   -5.299630e+000 1.928507e+001 0.000000e+000
      vertex   -3.589704e+001 1.306274e+002 2.000000e+002
    endloop
  endfacet
  facet normal -1.322224e-001 8.560331e-001 -4.997246e-001
    outer loop
      vertex   -3.807822e+000 1.963417e+001 0.000000e+000
      vertex   -2.579228e+001 1.329920e+002 2.000000e+002
      vertex   -1.553616e+001 1.345762e+002 2.000000e+002
    endloop
  endfacet
  facet normal -6.630577e-002 8.636428e-001 -4.997246e-001
    outer loop
      vertex   -7.660547e-001 1.998532e+001 0.000000e+000
      vertex   -2.293669e+000 1.986804e+001 0.000000e+000
      vertex   -1.553616e+001 1.345762e+002 2.000000e+002
    endloop
  endfacet
  facet normal 0.000000e+000 8.661844e-001 -4.997246e-001
    outer loop
      vertex   7.660547e-001 1.998532e+001 0.000000e+000
      vertex   -7.660547e-001 1.998532e+001 0.000000e+000
      vertex   -5.188871e+000 1.353706e+002 2.000000e+002
    endloop
  endfacet
  facet normal 6.630577e-002 8.636428e-001 -4.997246e-001
    outer loop
      vertex   2.293669e+000 1.986804e+001 0.000000e+000
      vertex   7.660547e-001 1.998532e+001 0.000000e+000
      vertex   5.188871e+000 1.353706e+002 2.000000e+002
    endloop
  endfacet
  facet normal 1.322224e-001 8.560331e-001 -4.997246e-001
    outer loop
      vertex   3.807822e+000 1.963417e+001 0.000000e+000
      vertex   2.293669e+000 1.986804e+001 0.000000e+000
      vertex   1.553616e+001 1.345762e+002 2.000000e+002
    endloop
  endfacet
  facet normal 1.973631e-001 8.433998e-001 -4.997246e-001
    outer loop
      vertex   5.299630e+000 1.928507e+001 0.000000e+000
      vertex   3.807822e+000 1.963417e+001 0.000000e+000
      vertex   2.579228e+001 1.329920e+002 2.000000e+002
    endloop
  endfacet
  facet normal 2.613457e-001 8.258170e-001 -4.997246e-001
    outer loop
      vertex   6.760338e+000 1.882280e+001 0.000000e+000
      vertex   5.299630e+000 1.928507e+001 0.000000e+000
      vertex   3.589704e+001 1.306274e+002 2.000000e+002
    endloop
  endfacet
  facet normal 3.237945e-001 8.033881e-001 -4.997246e-001
    outer loop
      vertex   6.760338e+000 1.882280e+001 0.000000e+000
      vertex   4.579115e+001 1.274962e+002 2.000000e+002
      vertex   5.541653e+001 1.236169e+002 2.000000e+002
    endloop
  endfacet
  facet normal 3.843432e-001 7.762446e-001 -4.997246e-001
    outer loop
      vertex   9.554396e+000 1.757025e+001 0.000000e+000
      vertex   8.181373e+000 1.825007e+001 0.000000e+000
      vertex   5.541653e+001 1.236169e+002 2.000000e+002
    endloop
  endfacet
  facet normal 4.426364e-001 7.445458e-001 -4.997246e-001
    outer loop
      vertex   9.554396e+000 1.757025e+001 0.000000e+000
      vertex   6.471670e+001 1.190121e+002 2.000000e+002
      vertex   7.363710e+001 1.137088e+002 2.000000e+002
    endloop
  endfacet
  facet normal 4.983320e-001 7.084776e-001 -4.997246e-001
    outer loop
      vertex   1.087135e+001 1.678731e+001 0.000000e+000
      vertex   7.363710e+001 1.137088e+002 2.000000e+002
      vertex   8.212536e+001 1.077383e+002 2.000000e+002
    endloop
  endfacet
  facet normal 5.511033e-001 6.682519e-001 -4.997246e-001
    outer loop
      vertex   1.330651e+001 1.493106e+001 0.000000e+000
      vertex   1.212451e+001 1.590586e+001 0.000000e+000
      vertex   8.212536e+001 1.077383e+002 2.000000e+002
    endloop
  endfacet
  facet normal 6.006404e-001 6.241045e-001 -4.997246e-001
    outer loop
      vertex   1.441043e+001 1.386865e+001 0.000000e+000
      vertex   1.330651e+001 1.493106e+001 0.000000e+000
      vertex   9.013167e+001 1.011356e+002 2.000000e+002
    endloop
  endfacet
  facet normal 6.466527e-001 5.762947e-001 -4.997246e-001
    outer loop
      vertex   1.542978e+001 1.272485e+001 0.000000e+000
      vertex   1.441043e+001 1.386865e+001 0.000000e+000
      vertex   9.760906e+001 9.393930e+001 2.000000e+002
    endloop
  endfacet
  facet normal 6.888703e-001 5.251030e-001 -4.997246e-001
    outer loop
      vertex   1.635859e+001 1.150637e+001 0.000000e+000
      vertex   1.542978e+001 1.272485e+001 0.000000e+000
      vertex   1.045136e+002 8.619176e+001 2.000000e+002
    endloop
  endfacet
  facet normal 7.270452e-001 4.708297e-001 -4.997246e-001
    outer loop
      vertex   1.635859e+001 1.150637e+001 0.000000e+000
      vertex   1.108049e+002 7.793842e+001 2.000000e+002
      vertex   1.164459e+002 6.922770e+001 2.000000e+002
    endloop
  endfacet
  facet normal 7.609536e-001 4.137934e-001 -4.997246e-001
    outer loop
      vertex   1.792331e+001 8.874397e+000 0.000000e+000
      vertex   1.719139e+001 1.022037e+001 0.000000e+000
      vertex   1.164459e+002 6.922770e+001 2.000000e+002
    endloop
  endfacet
  facet normal 7.903964e-001 3.543289e-001 -4.997246e-001
    outer loop
      vertex   1.855005e+001 7.476341e+000 0.000000e+000
      vertex   1.792331e+001 8.874397e+000 0.000000e+000
      vertex   1.214035e+002 6.011073e+001 2.000000e+002
    endloop
  endfacet
  facet normal 8.152008e-001 2.927849e-001 -4.997246e-001
    outer loop
      vertex   1.906793e+001 6.034412e+000 0.000000e+000
      vertex   1.855005e+001 7.476341e+000 0.000000e+000
      vertex   1.256488e+002 5.064100e+001 2.000000e+002
    endloop
  endfacet
  facet normal 8.352213e-001 2.295228e-001 -4.997246e-001
    outer loop
      vertex   1.947391e+001 4.557070e+000 0.000000e+000
      vertex   1.906793e+001 6.034412e+000 0.000000e+000
      vertex   1.291566e+002 4.087409e+001 2.000000e+002
    endloop
  endfacet
  facet normal 8.503404e-001 1.649138e-001 -4.997246e-001
    outer loop
      vertex   1.976561e+001 3.052986e+000 0.000000e+000
      vertex   1.947391e+001 4.557070e+000 0.000000e+000
      vertex   1.319065e+002 3.086731e+001 2.000000e+002
    endloop
  endfacet
  facet normal 8.604694e-001 9.933699e-002 -4.997246e-001
    outer loop
      vertex   1.994132e+001 1.530985e+000 0.000000e+000
      vertex   1.976561e+001 3.052986e+000 0.000000e+000
      vertex   1.338823e+002 2.067940e+001 2.000000e+002
    endloop
  endfacet
  facet normal 8.655487e-001 3.317723e-002 -4.997246e-001
    outer loop
      vertex   2.000000e+001 -4.898587e-015 0.000000e+000
      vertex   1.994132e+001 1.530985e+000 0.000000e+000
      vertex   1.350725e+002 1.037013e+001 2.000000e+002
    endloop
  endfacet
endsolid
