solid
 facet normal  0.000000e+000  0.000000e+000 -1.000000e+000
   outer loop
     vertex -1.461872e-003  7.849255e-003  1.800000e-002
     vertex -2.991165e-003  9.198402e-003  1.800000e-002
     vertex -8.916518e-004  9.915486e-003  1.800000e-002
   endloop
 endfacet
 facet normal  0.000000e+000  0.000000e+000 -1.000000e+000
   outer loop
     vertex  7.220910e-004  1.147731e-002  1.800000e-002
     vertex -8.916518e-004  9.915486e-003  1.800000e-002
     vertex -2.154885e-003  1.129630e-002  1.800000e-002
   endloop
 endfacet
 facet normal -0.000000e+000  0.000000e+000 -1.000000e+000
   outer loop
     vertex -7.017493e-003 -1.311304e-003  1.800000e-002
     vertex -9.671934e-003 -1.443708e-003  1.800000e-002
     vertex -8.419481e-003  1.584928e-003  1.800000e-002
   endloop
 endfacet
 facet normal -0.000000e+000  0.000000e+000 -1.000000e+000
   outer loop
     vertex -9.671934e-003 -1.443708e-003  1.800000e-002
     vertex -1.069243e-002 -4.233432e-003  1.800000e-002
     vertex -1.140932e-002 -1.441332e-003  1.800000e-002
   endloop
 endfacet
 facet normal  0.000000e+000  0.000000e+000 -1.000000e+000
   outer loop
     vertex -8.419481e-003  1.584928e-003  1.800000e-002
     vertex -9.671934e-003 -1.443708e-003  1.800000e-002
     vertex -1.140932e-002  1.441332e-003  1.800000e-002
   endloop
 endfacet
 facet normal  0.000000e+000  0.000000e+000 -1.000000e+000
   outer loop
     vertex -9.671934e-003 -1.443708e-003  1.800000e-002
     vertex -1.140932e-002 -1.441332e-003  1.800000e-002
     vertex -1.140932e-002  1.441332e-003  1.800000e-002
   endloop
 endfacet
 facet normal  0.000000e+000 -0.000000e+000 -1.000000e+000
   outer loop
     vertex -7.017493e-003 -1.311304e-003  1.800000e-002
     vertex -5.560849e-003 -2.835423e-003  1.800000e-002
     vertex -7.943167e-003 -4.158838e-003  1.800000e-002
   endloop
 endfacet
 facet normal  0.000000e+000 -0.000000e+000 -1.000000e+000
   outer loop
     vertex -5.503218e-003 -4.680103e-003  1.800000e-002
     vertex -3.832603e-003 -6.118390e-003  1.800000e-002
     vertex -6.578938e-003 -6.682282e-003  1.800000e-002
   endloop
 endfacet
 facet normal  0.000000e+000  0.000000e+000 -1.000000e+000
   outer loop
     vertex -6.578938e-003 -6.682282e-003  1.800000e-002
     vertex -7.330376e-003 -8.860902e-003  1.800000e-002
     vertex -9.303695e-003 -6.759530e-003  1.800000e-002
   endloop
 endfacet
 facet normal  0.000000e+000 -0.000000e+000 -1.000000e+000
   outer loop
     vertex -7.943167e-003 -4.158838e-003  1.800000e-002
     vertex -6.578938e-003 -6.682282e-003  1.800000e-002
     vertex -9.303695e-003 -6.759530e-003  1.800000e-002
   endloop
 endfacet
 facet normal  0.000000e+000  0.000000e+000 -1.000000e+000
   outer loop
     vertex -7.943167e-003 -4.158838e-003  1.800000e-002
     vertex -5.503218e-003 -4.680103e-003  1.800000e-002
     vertex -6.578938e-003 -6.682282e-003  1.800000e-002
   endloop
 endfacet
 facet normal  0.000000e+000 -0.000000e+000 -1.000000e+000
   outer loop
     vertex -3.425528e-003 -8.185683e-003  1.800000e-002
     vertex -1.832979e-003 -9.400417e-003  1.800000e-002
     vertex -4.896462e-003 -1.040551e-002  1.800000e-002
   endloop
 endfacet
 facet normal -0.000000e+000  0.000000e+000 -1.000000e+000
   outer loop
     vertex  1.150000e-002  0.000000e+000  1.800000e-002
     vertex  1.014293e-002 -1.161746e-003  1.800000e-002
     vertex  9.572065e-003  8.265904e-004  1.800000e-002
   endloop
 endfacet
 facet normal  0.000000e+000 -0.000000e+000 -1.000000e+000
   outer loop
     vertex -6.578938e-003 -6.682282e-003  1.800000e-002
     vertex -5.212844e-003 -8.200213e-003  1.800000e-002
     vertex -7.330376e-003 -8.860902e-003  1.800000e-002
   endloop
 endfacet
 facet normal  0.000000e+000 -0.000000e+000 -1.000000e+000
   outer loop
     vertex -3.594543e-003  1.137338e-003  1.800000e-002
     vertex -2.099699e-003 -3.882193e-004  1.800000e-002
     vertex -4.146932e-003 -1.284642e-003  1.800000e-002
   endloop
 endfacet
 facet normal  0.000000e+000  0.000000e+000 -1.000000e+000
   outer loop
     vertex -5.688490e-003  8.663833e-004  1.800000e-002
     vertex -8.419481e-003  1.584928e-003  1.800000e-002
     vertex -5.641364e-003  3.163055e-003  1.800000e-002
   endloop
 endfacet
 facet normal  0.000000e+000 -0.000000e+000 -1.000000e+000
   outer loop
     vertex -3.708382e-003  4.222988e-003  1.800000e-002
     vertex -3.594543e-003  1.137338e-003  1.800000e-002
     vertex -5.641364e-003  3.163055e-003  1.800000e-002
   endloop
 endfacet
 facet normal  0.000000e+000  0.000000e+000 -1.000000e+000
   outer loop
     vertex -3.832603e-003 -6.118390e-003  1.800000e-002
     vertex -1.837135e-003 -4.779690e-003  1.800000e-002
     vertex -1.545115e-003 -6.950437e-003  1.800000e-002
   endloop
 endfacet
 facet normal -0.000000e+000  0.000000e+000 -1.000000e+000
   outer loop
     vertex  2.178191e-004 -8.213897e-003  1.800000e-002
     vertex -1.832979e-003 -9.400417e-003  1.800000e-002
     vertex -1.545115e-003 -6.950437e-003  1.800000e-002
   endloop
 endfacet
 facet normal  0.000000e+000  0.000000e+000 -1.000000e+000
   outer loop
     vertex -9.671934e-003 -1.443708e-003  1.800000e-002
     vertex -7.017493e-003 -1.311304e-003  1.800000e-002
     vertex -7.943167e-003 -4.158838e-003  1.800000e-002
   endloop
 endfacet
 facet normal -0.000000e+000  0.000000e+000 -1.000000e+000
   outer loop
     vertex -1.837135e-003 -4.779690e-003  1.800000e-002
     vertex -3.832603e-003 -6.118390e-003  1.800000e-002
     vertex -3.777516e-003 -3.456787e-003  1.800000e-002
   endloop
 endfacet
 facet normal  0.000000e+000  0.000000e+000 -1.000000e+000
   outer loop
     vertex -4.146932e-003 -1.284642e-003  1.800000e-002
     vertex -2.003800e-003 -2.581237e-003  1.800000e-002
     vertex -3.777516e-003 -3.456787e-003  1.800000e-002
   endloop
 endfacet
 facet normal  0.000000e+000  0.000000e+000 -1.000000e+000
   outer loop
     vertex -7.943167e-003 -4.158838e-003  1.800000e-002
     vertex -9.303695e-003 -6.759530e-003  1.800000e-002
     vertex -1.069243e-002 -4.233432e-003  1.800000e-002
   endloop
 endfacet
 facet normal  0.000000e+000  0.000000e+000 -1.000000e+000
   outer loop
     vertex -3.594543e-003  1.137338e-003  1.800000e-002
     vertex -1.579725e-003  1.276249e-003  1.800000e-002
     vertex -2.099699e-003 -3.882193e-004  1.800000e-002
   endloop
 endfacet
 facet normal  0.000000e+000 -0.000000e+000 -1.000000e+000
   outer loop
     vertex -9.671934e-003 -1.443708e-003  1.800000e-002
     vertex -7.943167e-003 -4.158838e-003  1.800000e-002
     vertex -1.069243e-002 -4.233432e-003  1.800000e-002
   endloop
 endfacet
 facet normal  0.000000e+000  0.000000e+000 -1.000000e+000
   outer loop
     vertex -2.003800e-003 -2.581237e-003  1.800000e-002
     vertex -4.146932e-003 -1.284642e-003  1.800000e-002
     vertex -2.099699e-003 -3.882193e-004  1.800000e-002
   endloop
 endfacet
 facet normal  0.000000e+000  0.000000e+000 -1.000000e+000
   outer loop
     vertex -3.327612e-005  4.426609e-003  1.800000e-002
     vertex  1.925263e-003  3.465211e-003  1.800000e-002
     vertex  1.608976e-004  2.329148e-003  1.800000e-002
   endloop
 endfacet
 facet normal  0.000000e+000  0.000000e+000 -1.000000e+000
   outer loop
     vertex  1.333336e-005  4.014971e-004  1.800000e-002
     vertex -1.579725e-003  1.276249e-003  1.800000e-002
     vertex  1.608976e-004  2.329148e-003  1.800000e-002
   endloop
 endfacet
 facet normal  0.000000e+000  0.000000e+000 -1.000000e+000
   outer loop
     vertex  6.046804e-005 -5.965872e-003  1.800000e-002
     vertex -1.837135e-003 -4.779690e-003  1.800000e-002
     vertex -1.027244e-004 -3.925191e-003  1.800000e-002
   endloop
 endfacet
 facet normal  0.000000e+000 -0.000000e+000 -1.000000e+000
   outer loop
     vertex -4.892465e-005 -1.700076e-003  1.800000e-002
     vertex  2.007361e-003 -2.993015e-003  1.800000e-002
     vertex -1.027244e-004 -3.925191e-003  1.800000e-002
   endloop
 endfacet
 facet normal  0.000000e+000  0.000000e+000 -1.000000e+000
   outer loop
     vertex -3.471470e-003  6.741334e-003  1.800000e-002
     vertex -1.461872e-003  7.849255e-003  1.800000e-002
     vertex -1.784594e-003  5.404607e-003  1.800000e-002
   endloop
 endfacet
 facet normal  0.000000e+000  0.000000e+000 -1.000000e+000
   outer loop
     vertex -1.810804e-003  3.097921e-003  1.800000e-002
     vertex -3.708382e-003  4.222988e-003  1.800000e-002
     vertex -1.784594e-003  5.404607e-003  1.800000e-002
   endloop
 endfacet
 facet normal -0.000000e+000  0.000000e+000 -1.000000e+000
   outer loop
     vertex  3.575501e-003 -4.339216e-003  1.800000e-002
     vertex  1.862092e-003 -5.183969e-003  1.800000e-002
     vertex  2.007361e-003 -2.993015e-003  1.800000e-002
   endloop
 endfacet
 facet normal  0.000000e+000  0.000000e+000 -1.000000e+000
   outer loop
     vertex -1.579725e-003  1.276249e-003  1.800000e-002
     vertex -1.810804e-003  3.097921e-003  1.800000e-002
     vertex  1.608976e-004  2.329148e-003  1.800000e-002
   endloop
 endfacet
 facet normal  0.000000e+000  0.000000e+000 -1.000000e+000
   outer loop
     vertex  1.931993e-003 -7.152010e-004  1.800000e-002
     vertex  4.177157e-003 -2.030597e-003  1.800000e-002
     vertex  2.007361e-003 -2.993015e-003  1.800000e-002
   endloop
 endfacet
 facet normal -0.000000e+000  0.000000e+000 -1.000000e+000
   outer loop
     vertex  3.877729e-003 -7.337079e-003  1.800000e-002
     vertex  2.088161e-003 -8.995392e-003  1.800000e-002
     vertex  1.660936e-003 -7.096754e-003  1.800000e-002
   endloop
 endfacet
 facet normal  0.000000e+000  0.000000e+000 -1.000000e+000
   outer loop
     vertex  1.931993e-003 -7.152010e-004  1.800000e-002
     vertex  1.885175e-003  1.428120e-003  1.800000e-002
     vertex  3.593890e-003  4.448408e-004  1.800000e-002
   endloop
 endfacet
 facet normal  0.000000e+000  0.000000e+000 -1.000000e+000
   outer loop
     vertex  1.113871e-002 -2.859934e-003  1.800000e-002
     vertex  1.014293e-002 -1.161746e-003  1.800000e-002
     vertex  1.150000e-002  0.000000e+000  1.800000e-002
   endloop
 endfacet
 facet normal -0.000000e+000  0.000000e+000 -1.000000e+000
   outer loop
     vertex  5.427756e-003 -1.712437e-004  1.800000e-002
     vertex  4.177157e-003 -2.030597e-003  1.800000e-002
     vertex  3.593890e-003  4.448408e-004  1.800000e-002
   endloop
 endfacet
 facet normal  0.000000e+000  0.000000e+000 -1.000000e+000
   outer loop
     vertex  9.572065e-003  8.265904e-004  1.800000e-002
     vertex  1.113871e-002  2.859934e-003  1.800000e-002
     vertex  1.150000e-002  0.000000e+000  1.800000e-002
   endloop
 endfacet
 facet normal -0.000000e+000  0.000000e+000 -1.000000e+000
   outer loop
     vertex  3.707588e-003  2.599111e-003  1.800000e-002
     vertex  1.885175e-003  1.428120e-003  1.800000e-002
     vertex  1.925263e-003  3.465211e-003  1.800000e-002
   endloop
 endfacet
 facet normal  0.000000e+000  0.000000e+000 -1.000000e+000
   outer loop
     vertex  8.664290e-003 -8.906273e-004  1.800000e-002
     vertex  9.572065e-003  8.265904e-004  1.800000e-002
     vertex  1.014293e-002 -1.161746e-003  1.800000e-002
   endloop
 endfacet
 facet normal  0.000000e+000  0.000000e+000 -1.000000e+000
   outer loop
     vertex  1.559950e-003  5.401780e-003  1.800000e-002
     vertex  3.792460e-003  5.080858e-003  1.800000e-002
     vertex  1.925263e-003  3.465211e-003  1.800000e-002
   endloop
 endfacet
 facet normal  0.000000e+000 -0.000000e+000 -1.000000e+000
   outer loop
     vertex  3.792460e-003  5.080858e-003  1.800000e-002
     vertex  6.081332e-003  3.489381e-003  1.800000e-002
     vertex  3.707588e-003  2.599111e-003  1.800000e-002
   endloop
 endfacet
 facet normal  0.000000e+000  0.000000e+000 -1.000000e+000
   outer loop
     vertex  1.885175e-003  1.428120e-003  1.800000e-002
     vertex  3.707588e-003  2.599111e-003  1.800000e-002
     vertex  3.593890e-003  4.448408e-004  1.800000e-002
   endloop
 endfacet
 facet normal  0.000000e+000  0.000000e+000 -1.000000e+000
   outer loop
     vertex -4.146932e-003 -1.284642e-003  1.800000e-002
     vertex -5.688490e-003  8.663833e-004  1.800000e-002
     vertex -3.594543e-003  1.137338e-003  1.800000e-002
   endloop
 endfacet
 facet normal  0.000000e+000  0.000000e+000 -1.000000e+000
   outer loop
     vertex  8.026885e-003 -5.028575e-003  1.800000e-002
     vertex  5.569282e-003 -4.685303e-003  1.800000e-002
     vertex  6.964003e-003 -2.071528e-003  1.800000e-002
   endloop
 endfacet
 facet normal -0.000000e+000  0.000000e+000 -1.000000e+000
   outer loop
     vertex  6.506278e-003 -7.035841e-003  1.800000e-002
     vertex  3.877729e-003 -7.337079e-003  1.800000e-002
     vertex  5.569282e-003 -4.685303e-003  1.800000e-002
   endloop
 endfacet
 facet normal  0.000000e+000  0.000000e+000 -1.000000e+000
   outer loop
     vertex  5.569282e-003 -4.685303e-003  1.800000e-002
     vertex  8.026885e-003 -5.028575e-003  1.800000e-002
     vertex  6.506278e-003 -7.035841e-003  1.800000e-002
   endloop
 endfacet
 facet normal  0.000000e+000  0.000000e+000 -1.000000e+000
   outer loop
     vertex -5.560849e-003 -2.835423e-003  1.800000e-002
     vertex -4.146932e-003 -1.284642e-003  1.800000e-002
     vertex -3.777516e-003 -3.456787e-003  1.800000e-002
   endloop
 endfacet
 facet normal  0.000000e+000  0.000000e+000 -1.000000e+000
   outer loop
     vertex  6.506278e-003 -7.035841e-003  1.800000e-002
     vertex  8.026885e-003 -5.028575e-003  1.800000e-002
     vertex  8.383139e-003 -7.872292e-003  1.800000e-002
   endloop
 endfacet
 facet normal  0.000000e+000  0.000000e+000 -1.000000e+000
   outer loop
     vertex  8.026885e-003 -5.028575e-003  1.800000e-002
     vertex  1.007753e-002 -5.540167e-003  1.800000e-002
     vertex  8.383139e-003 -7.872292e-003  1.800000e-002
   endloop
 endfacet
 facet normal -0.000000e+000  0.000000e+000 -1.000000e+000
   outer loop
     vertex -1.579725e-003  1.276249e-003  1.800000e-002
     vertex -3.594543e-003  1.137338e-003  1.800000e-002
     vertex -1.810804e-003  3.097921e-003  1.800000e-002
   endloop
 endfacet
 facet normal  0.000000e+000 -0.000000e+000 -1.000000e+000
   outer loop
     vertex -3.327612e-005  4.426609e-003  1.800000e-002
     vertex  1.608976e-004  2.329148e-003  1.800000e-002
     vertex -1.810804e-003  3.097921e-003  1.800000e-002
   endloop
 endfacet
 facet normal  0.000000e+000  0.000000e+000 -1.000000e+000
   outer loop
     vertex  2.178191e-004 -8.213897e-003  1.800000e-002
     vertex  2.088161e-003 -8.995392e-003  1.800000e-002
     vertex  7.220910e-004 -1.147731e-002  1.800000e-002
   endloop
 endfacet
 facet normal  0.000000e+000 -0.000000e+000 -1.000000e+000
   outer loop
     vertex  3.877729e-003 -7.337079e-003  1.800000e-002
     vertex  6.162008e-003 -9.709771e-003  1.800000e-002
     vertex  3.553695e-003 -1.093715e-002  1.800000e-002
   endloop
 endfacet
 facet normal  0.000000e+000  0.000000e+000 -1.000000e+000
   outer loop
     vertex -4.896462e-003  1.040551e-002  1.800000e-002
     vertex -2.154885e-003  1.129630e-002  1.800000e-002
     vertex -2.991165e-003  9.198402e-003  1.800000e-002
   endloop
 endfacet
 facet normal -0.000000e+000  0.000000e+000 -1.000000e+000
   outer loop
     vertex  5.569282e-003 -4.685303e-003  1.800000e-002
     vertex  3.877729e-003 -7.337079e-003  1.800000e-002
     vertex  3.575501e-003 -4.339216e-003  1.800000e-002
   endloop
 endfacet
 facet normal -0.000000e+000  0.000000e+000 -1.000000e+000
   outer loop
     vertex -1.461872e-003  7.849255e-003  1.800000e-002
     vertex -3.471470e-003  6.741334e-003  1.800000e-002
     vertex -2.991165e-003  9.198402e-003  1.800000e-002
   endloop
 endfacet
 facet normal  0.000000e+000 -0.000000e+000 -1.000000e+000
   outer loop
     vertex  4.177157e-003 -2.030597e-003  1.800000e-002
     vertex  5.569282e-003 -4.685303e-003  1.800000e-002
     vertex  3.575501e-003 -4.339216e-003  1.800000e-002
   endloop
 endfacet
 facet normal -0.000000e+000  0.000000e+000 -1.000000e+000
   outer loop
     vertex -3.327612e-005  4.426609e-003  1.800000e-002
     vertex -1.810804e-003  3.097921e-003  1.800000e-002
     vertex -1.784594e-003  5.404607e-003  1.800000e-002
   endloop
 endfacet
 facet normal -0.000000e+000  0.000000e+000 -1.000000e+000
   outer loop
     vertex  3.553695e-003 -1.093715e-002  1.800000e-002
     vertex  7.220910e-004 -1.147731e-002  1.800000e-002
     vertex  2.088161e-003 -8.995392e-003  1.800000e-002
   endloop
 endfacet
 facet normal  0.000000e+000  0.000000e+000 -1.000000e+000
   outer loop
     vertex  3.877729e-003 -7.337079e-003  1.800000e-002
     vertex  3.553695e-003 -1.093715e-002  1.800000e-002
     vertex  2.088161e-003 -8.995392e-003  1.800000e-002
   endloop
 endfacet
 facet normal  0.000000e+000  0.000000e+000 -1.000000e+000
   outer loop
     vertex  6.162008e-003 -9.709771e-003  1.800000e-002
     vertex  6.506278e-003 -7.035841e-003  1.800000e-002
     vertex  8.383139e-003 -7.872292e-003  1.800000e-002
   endloop
 endfacet
 facet normal  0.000000e+000  0.000000e+000 -1.000000e+000
   outer loop
     vertex  8.664290e-003 -8.906273e-004  1.800000e-002
     vertex  1.014293e-002 -1.161746e-003  1.800000e-002
     vertex  9.264236e-003 -2.917146e-003  1.800000e-002
   endloop
 endfacet
 facet normal  0.000000e+000  0.000000e+000 -1.000000e+000
   outer loop
     vertex  3.877729e-003 -7.337079e-003  1.800000e-002
     vertex  6.506278e-003 -7.035841e-003  1.800000e-002
     vertex  6.162008e-003 -9.709771e-003  1.800000e-002
   endloop
 endfacet
 facet normal  0.000000e+000  0.000000e+000 -1.000000e+000
   outer loop
     vertex  8.026885e-003 -5.028575e-003  1.800000e-002
     vertex  6.964003e-003 -2.071528e-003  1.800000e-002
     vertex  9.264236e-003 -2.917146e-003  1.800000e-002
   endloop
 endfacet
 facet normal  0.000000e+000  0.000000e+000 -1.000000e+000
   outer loop
     vertex -5.503218e-003 -4.680103e-003  1.800000e-002
     vertex -7.943167e-003 -4.158838e-003  1.800000e-002
     vertex -5.560849e-003 -2.835423e-003  1.800000e-002
   endloop
 endfacet
 facet normal  0.000000e+000  0.000000e+000 -1.000000e+000
   outer loop
     vertex -1.837135e-003 -4.779690e-003  1.800000e-002
     vertex -3.777516e-003 -3.456787e-003  1.800000e-002
     vertex -2.003800e-003 -2.581237e-003  1.800000e-002
   endloop
 endfacet
 facet normal  0.000000e+000  0.000000e+000 -1.000000e+000
   outer loop
     vertex -5.560849e-003 -2.835423e-003  1.800000e-002
     vertex -3.777516e-003 -3.456787e-003  1.800000e-002
     vertex -5.503218e-003 -4.680103e-003  1.800000e-002
   endloop
 endfacet
 facet normal  0.000000e+000  0.000000e+000 -1.000000e+000
   outer loop
     vertex -4.892465e-005 -1.700076e-003  1.800000e-002
     vertex -1.027244e-004 -3.925191e-003  1.800000e-002
     vertex -2.003800e-003 -2.581237e-003  1.800000e-002
   endloop
 endfacet
 facet normal  0.000000e+000  0.000000e+000 -1.000000e+000
   outer loop
     vertex -6.578938e-003 -6.682282e-003  1.800000e-002
     vertex -3.832603e-003 -6.118390e-003  1.800000e-002
     vertex -5.212844e-003 -8.200213e-003  1.800000e-002
   endloop
 endfacet
 facet normal  0.000000e+000  0.000000e+000 -1.000000e+000
   outer loop
     vertex -4.896462e-003 -1.040551e-002  1.800000e-002
     vertex -7.330376e-003 -8.860902e-003  1.800000e-002
     vertex -5.212844e-003 -8.200213e-003  1.800000e-002
   endloop
 endfacet
 facet normal  0.000000e+000  0.000000e+000 -1.000000e+000
   outer loop
     vertex -8.916518e-004  9.915486e-003  1.800000e-002
     vertex  7.220910e-004  1.147731e-002  1.800000e-002
     vertex  7.317798e-004  9.024447e-003  1.800000e-002
   endloop
 endfacet
 facet normal  0.000000e+000  0.000000e+000 -1.000000e+000
   outer loop
     vertex  1.595080e-004  6.629938e-003  1.800000e-002
     vertex -1.461872e-003  7.849255e-003  1.800000e-002
     vertex  7.317798e-004  9.024447e-003  1.800000e-002
   endloop
 endfacet
 facet normal  0.000000e+000  0.000000e+000 -1.000000e+000
   outer loop
     vertex  8.026885e-003 -5.028575e-003  1.800000e-002
     vertex  9.264236e-003 -2.917146e-003  1.800000e-002
     vertex  1.007753e-002 -5.540167e-003  1.800000e-002
   endloop
 endfacet
 facet normal -0.000000e+000  0.000000e+000 -1.000000e+000
   outer loop
     vertex -3.425528e-003 -8.185683e-003  1.800000e-002
     vertex -5.212844e-003 -8.200213e-003  1.800000e-002
     vertex -3.832603e-003 -6.118390e-003  1.800000e-002
   endloop
 endfacet
 facet normal -0.000000e+000  0.000000e+000 -1.000000e+000
   outer loop
     vertex  6.046804e-005 -5.965872e-003  1.800000e-002
     vertex -1.545115e-003 -6.950437e-003  1.800000e-002
     vertex -1.837135e-003 -4.779690e-003  1.800000e-002
   endloop
 endfacet
 facet normal  0.000000e+000  0.000000e+000 -1.000000e+000
   outer loop
     vertex  2.178191e-004 -8.213897e-003  1.800000e-002
     vertex  1.660936e-003 -7.096754e-003  1.800000e-002
     vertex  2.088161e-003 -8.995392e-003  1.800000e-002
   endloop
 endfacet
 facet normal  0.000000e+000  0.000000e+000 -1.000000e+000
   outer loop
     vertex -2.003800e-003 -2.581237e-003  1.800000e-002
     vertex -2.099699e-003 -3.882193e-004  1.800000e-002
     vertex -4.892465e-005 -1.700076e-003  1.800000e-002
   endloop
 endfacet
 facet normal  0.000000e+000 -0.000000e+000 -1.000000e+000
   outer loop
     vertex  1.885175e-003  1.428120e-003  1.800000e-002
     vertex  1.931993e-003 -7.152010e-004  1.800000e-002
     vertex  1.333336e-005  4.014971e-004  1.800000e-002
   endloop
 endfacet
 facet normal  0.000000e+000 -0.000000e+000 -1.000000e+000
   outer loop
     vertex  8.664290e-003 -8.906273e-004  1.800000e-002
     vertex  9.264236e-003 -2.917146e-003  1.800000e-002
     vertex  6.964003e-003 -2.071528e-003  1.800000e-002
   endloop
 endfacet
 facet normal -0.000000e+000  0.000000e+000 -1.000000e+000
   outer loop
     vertex  1.113871e-002 -2.859934e-003  1.800000e-002
     vertex  9.264236e-003 -2.917146e-003  1.800000e-002
     vertex  1.014293e-002 -1.161746e-003  1.800000e-002
   endloop
 endfacet
 facet normal  0.000000e+000  0.000000e+000 -1.000000e+000
   outer loop
     vertex  7.255489e-003  8.359232e-004  1.800000e-002
     vertex  9.572065e-003  8.265904e-004  1.800000e-002
     vertex  8.664290e-003 -8.906273e-004  1.800000e-002
   endloop
 endfacet
 facet normal  0.000000e+000  0.000000e+000 -1.000000e+000
   outer loop
     vertex -3.832603e-003 -6.118390e-003  1.800000e-002
     vertex -1.545115e-003 -6.950437e-003  1.800000e-002
     vertex -3.425528e-003 -8.185683e-003  1.800000e-002
   endloop
 endfacet
 facet normal  0.000000e+000  0.000000e+000 -1.000000e+000
   outer loop
     vertex  1.862092e-003 -5.183969e-003  1.800000e-002
     vertex  1.660936e-003 -7.096754e-003  1.800000e-002
     vertex  6.046804e-005 -5.965872e-003  1.800000e-002
   endloop
 endfacet
 facet normal  0.000000e+000  0.000000e+000 -1.000000e+000
   outer loop
     vertex -3.425528e-003 -8.185683e-003  1.800000e-002
     vertex -1.545115e-003 -6.950437e-003  1.800000e-002
     vertex -1.832979e-003 -9.400417e-003  1.800000e-002
   endloop
 endfacet
 facet normal  0.000000e+000  0.000000e+000 -1.000000e+000
   outer loop
     vertex  5.181672e-003  1.562135e-003  1.800000e-002
     vertex  7.255489e-003  8.359232e-004  1.800000e-002
     vertex  5.427756e-003 -1.712437e-004  1.800000e-002
   endloop
 endfacet
 facet normal  0.000000e+000 -0.000000e+000 -1.000000e+000
   outer loop
     vertex  1.862092e-003 -5.183969e-003  1.800000e-002
     vertex  3.877729e-003 -7.337079e-003  1.800000e-002
     vertex  1.660936e-003 -7.096754e-003  1.800000e-002
   endloop
 endfacet
 facet normal  0.000000e+000  0.000000e+000 -1.000000e+000
   outer loop
     vertex  5.181672e-003  1.562135e-003  1.800000e-002
     vertex  6.081332e-003  3.489381e-003  1.800000e-002
     vertex  7.255489e-003  8.359232e-004  1.800000e-002
   endloop
 endfacet
 facet normal  0.000000e+000  0.000000e+000 -1.000000e+000
   outer loop
     vertex -2.154885e-003 -1.129630e-002  1.800000e-002
     vertex -1.832979e-003 -9.400417e-003  1.800000e-002
     vertex  7.220910e-004 -1.147731e-002  1.800000e-002
   endloop
 endfacet
 facet normal  0.000000e+000  0.000000e+000 -1.000000e+000
   outer loop
     vertex  4.177157e-003 -2.030597e-003  1.800000e-002
     vertex  5.427756e-003 -1.712437e-004  1.800000e-002
     vertex  6.964003e-003 -2.071528e-003  1.800000e-002
   endloop
 endfacet
 facet normal  0.000000e+000  0.000000e+000 -1.000000e+000
   outer loop
     vertex  1.862092e-003 -5.183969e-003  1.800000e-002
     vertex  3.575501e-003 -4.339216e-003  1.800000e-002
     vertex  3.877729e-003 -7.337079e-003  1.800000e-002
   endloop
 endfacet
 facet normal  0.000000e+000  0.000000e+000 -1.000000e+000
   outer loop
     vertex  4.177157e-003 -2.030597e-003  1.800000e-002
     vertex  6.964003e-003 -2.071528e-003  1.800000e-002
     vertex  5.569282e-003 -4.685303e-003  1.800000e-002
   endloop
 endfacet
 facet normal  0.000000e+000 -0.000000e+000 -1.000000e+000
   outer loop
     vertex  1.931993e-003 -7.152010e-004  1.800000e-002
     vertex  2.007361e-003 -2.993015e-003  1.800000e-002
     vertex -4.892465e-005 -1.700076e-003  1.800000e-002
   endloop
 endfacet
 facet normal  0.000000e+000 -0.000000e+000 -1.000000e+000
   outer loop
     vertex -2.154885e-003  1.129630e-002  1.800000e-002
     vertex -8.916518e-004  9.915486e-003  1.800000e-002
     vertex -2.991165e-003  9.198402e-003  1.800000e-002
   endloop
 endfacet
 facet normal -0.000000e+000  0.000000e+000 -1.000000e+000
   outer loop
     vertex  2.374364e-003  7.528288e-003  1.800000e-002
     vertex  1.595080e-004  6.629938e-003  1.800000e-002
     vertex  7.317798e-004  9.024447e-003  1.800000e-002
   endloop
 endfacet
 facet normal  0.000000e+000  0.000000e+000 -1.000000e+000
   outer loop
     vertex -7.017493e-003 -1.311304e-003  1.800000e-002
     vertex -4.146932e-003 -1.284642e-003  1.800000e-002
     vertex -5.560849e-003 -2.835423e-003  1.800000e-002
   endloop
 endfacet
 facet normal  0.000000e+000  0.000000e+000 -1.000000e+000
   outer loop
     vertex  1.113871e-002 -2.859934e-003  1.800000e-002
     vertex  1.007753e-002 -5.540167e-003  1.800000e-002
     vertex  9.264236e-003 -2.917146e-003  1.800000e-002
   endloop
 endfacet
 facet normal  0.000000e+000 -0.000000e+000 -1.000000e+000
   outer loop
     vertex  6.046804e-005 -5.965872e-003  1.800000e-002
     vertex  2.178191e-004 -8.213897e-003  1.800000e-002
     vertex -1.545115e-003 -6.950437e-003  1.800000e-002
   endloop
 endfacet
 facet normal  0.000000e+000  0.000000e+000 -1.000000e+000
   outer loop
     vertex  6.046804e-005 -5.965872e-003  1.800000e-002
     vertex -1.027244e-004 -3.925191e-003  1.800000e-002
     vertex  1.862092e-003 -5.183969e-003  1.800000e-002
   endloop
 endfacet
 facet normal  0.000000e+000  0.000000e+000 -1.000000e+000
   outer loop
     vertex -7.496626e-003  4.636356e-003  1.800000e-002
     vertex -5.373419e-003  5.733756e-003  1.800000e-002
     vertex -5.641364e-003  3.163055e-003  1.800000e-002
   endloop
 endfacet
 facet normal -0.000000e+000  0.000000e+000 -1.000000e+000
   outer loop
     vertex  1.885175e-003  1.428120e-003  1.800000e-002
     vertex  1.333336e-005  4.014971e-004  1.800000e-002
     vertex  1.608976e-004  2.329148e-003  1.800000e-002
   endloop
 endfacet
 facet normal  0.000000e+000  0.000000e+000 -1.000000e+000
   outer loop
     vertex  6.964003e-003 -2.071528e-003  1.800000e-002
     vertex  7.255489e-003  8.359232e-004  1.800000e-002
     vertex  8.664290e-003 -8.906273e-004  1.800000e-002
   endloop
 endfacet
 facet normal  0.000000e+000  0.000000e+000 -1.000000e+000
   outer loop
     vertex -2.154885e-003 -1.129630e-002  1.800000e-002
     vertex -4.896462e-003 -1.040551e-002  1.800000e-002
     vertex -1.832979e-003 -9.400417e-003  1.800000e-002
   endloop
 endfacet
 facet normal  0.000000e+000  0.000000e+000 -1.000000e+000
   outer loop
     vertex  2.178191e-004 -8.213897e-003  1.800000e-002
     vertex  6.046804e-005 -5.965872e-003  1.800000e-002
     vertex  1.660936e-003 -7.096754e-003  1.800000e-002
   endloop
 endfacet
 facet normal  0.000000e+000  0.000000e+000 -1.000000e+000
   outer loop
     vertex  6.128237e-003  5.837372e-003  1.800000e-002
     vertex  6.081332e-003  3.489381e-003  1.800000e-002
     vertex  3.792460e-003  5.080858e-003  1.800000e-002
   endloop
 endfacet
 facet normal  0.000000e+000  0.000000e+000 -1.000000e+000
   outer loop
     vertex  6.081332e-003  3.489381e-003  1.800000e-002
     vertex  8.707775e-003  3.089855e-003  1.800000e-002
     vertex  7.255489e-003  8.359232e-004  1.800000e-002
   endloop
 endfacet
 facet normal -0.000000e+000  0.000000e+000 -1.000000e+000
   outer loop
     vertex  1.113871e-002  2.859934e-003  1.800000e-002
     vertex  9.572065e-003  8.265904e-004  1.800000e-002
     vertex  8.707775e-003  3.089855e-003  1.800000e-002
   endloop
 endfacet
 facet normal  0.000000e+000  0.000000e+000 -1.000000e+000
   outer loop
     vertex  7.802522e-003  5.100235e-003  1.800000e-002
     vertex  1.007753e-002  5.540167e-003  1.800000e-002
     vertex  8.707775e-003  3.089855e-003  1.800000e-002
   endloop
 endfacet
 facet normal  0.000000e+000  0.000000e+000 -1.000000e+000
   outer loop
     vertex -3.708382e-003  4.222988e-003  1.800000e-002
     vertex -5.373419e-003  5.733756e-003  1.800000e-002
     vertex -3.471470e-003  6.741334e-003  1.800000e-002
   endloop
 endfacet
 facet normal  0.000000e+000 -0.000000e+000 -1.000000e+000
   outer loop
     vertex -1.461872e-003  7.849255e-003  1.800000e-002
     vertex  1.595080e-004  6.629938e-003  1.800000e-002
     vertex -1.784594e-003  5.404607e-003  1.800000e-002
   endloop
 endfacet
 facet normal  0.000000e+000  0.000000e+000 -1.000000e+000
   outer loop
     vertex  2.374364e-003  7.528288e-003  1.800000e-002
     vertex  5.042991e-003  7.813887e-003  1.800000e-002
     vertex  3.792460e-003  5.080858e-003  1.800000e-002
   endloop
 endfacet
 facet normal  0.000000e+000  0.000000e+000 -1.000000e+000
   outer loop
     vertex  2.374364e-003  7.528288e-003  1.800000e-002
     vertex  3.553695e-003  1.093715e-002  1.800000e-002
     vertex  5.042991e-003  7.813887e-003  1.800000e-002
   endloop
 endfacet
 facet normal  0.000000e+000  0.000000e+000 -1.000000e+000
   outer loop
     vertex  1.862092e-003 -5.183969e-003  1.800000e-002
     vertex -1.027244e-004 -3.925191e-003  1.800000e-002
     vertex  2.007361e-003 -2.993015e-003  1.800000e-002
   endloop
 endfacet
 facet normal  0.000000e+000  0.000000e+000 -1.000000e+000
   outer loop
     vertex -4.892465e-005 -1.700076e-003  1.800000e-002
     vertex  1.333336e-005  4.014971e-004  1.800000e-002
     vertex  1.931993e-003 -7.152010e-004  1.800000e-002
   endloop
 endfacet
 facet normal  0.000000e+000  0.000000e+000 -1.000000e+000
   outer loop
     vertex  1.931993e-003 -7.152010e-004  1.800000e-002
     vertex  3.593890e-003  4.448408e-004  1.800000e-002
     vertex  4.177157e-003 -2.030597e-003  1.800000e-002
   endloop
 endfacet
 facet normal  0.000000e+000  0.000000e+000 -1.000000e+000
   outer loop
     vertex  2.374364e-003  7.528288e-003  1.800000e-002
     vertex  7.317798e-004  9.024447e-003  1.800000e-002
     vertex  3.553695e-003  1.093715e-002  1.800000e-002
   endloop
 endfacet
 facet normal -0.000000e+000  0.000000e+000 -1.000000e+000
   outer loop
     vertex  6.162008e-003  9.709771e-003  1.800000e-002
     vertex  5.042991e-003  7.813887e-003  1.800000e-002
     vertex  3.553695e-003  1.093715e-002  1.800000e-002
   endloop
 endfacet
 facet normal  0.000000e+000  0.000000e+000 -1.000000e+000
   outer loop
     vertex  7.220910e-004  1.147731e-002  1.800000e-002
     vertex  3.553695e-003  1.093715e-002  1.800000e-002
     vertex  7.317798e-004  9.024447e-003  1.800000e-002
   endloop
 endfacet
 facet normal  0.000000e+000 -0.000000e+000 -1.000000e+000
   outer loop
     vertex -8.916518e-004  9.915486e-003  1.800000e-002
     vertex  7.317798e-004  9.024447e-003  1.800000e-002
     vertex -1.461872e-003  7.849255e-003  1.800000e-002
   endloop
 endfacet
 facet normal  0.000000e+000  0.000000e+000 -1.000000e+000
   outer loop
     vertex  7.255489e-003  8.359232e-004  1.800000e-002
     vertex  6.964003e-003 -2.071528e-003  1.800000e-002
     vertex  5.427756e-003 -1.712437e-004  1.800000e-002
   endloop
 endfacet
 facet normal  0.000000e+000  0.000000e+000 -1.000000e+000
   outer loop
     vertex  5.042991e-003  7.813887e-003  1.800000e-002
     vertex  6.162008e-003  9.709771e-003  1.800000e-002
     vertex  8.383139e-003  7.872292e-003  1.800000e-002
   endloop
 endfacet
 facet normal  0.000000e+000 -0.000000e+000 -1.000000e+000
   outer loop
     vertex  6.128237e-003  5.837372e-003  1.800000e-002
     vertex  7.802522e-003  5.100235e-003  1.800000e-002
     vertex  6.081332e-003  3.489381e-003  1.800000e-002
   endloop
 endfacet
 facet normal  0.000000e+000  0.000000e+000 -1.000000e+000
   outer loop
     vertex  7.802522e-003  5.100235e-003  1.800000e-002
     vertex  6.128237e-003  5.837372e-003  1.800000e-002
     vertex  8.383139e-003  7.872292e-003  1.800000e-002
   endloop
 endfacet
 facet normal  0.000000e+000  0.000000e+000 -1.000000e+000
   outer loop
     vertex  1.113871e-002  2.859934e-003  1.800000e-002
     vertex  8.707775e-003  3.089855e-003  1.800000e-002
     vertex  1.007753e-002  5.540167e-003  1.800000e-002
   endloop
 endfacet
 facet normal  0.000000e+000  0.000000e+000 -1.000000e+000
   outer loop
     vertex  7.802522e-003  5.100235e-003  1.800000e-002
     vertex  8.383139e-003  7.872292e-003  1.800000e-002
     vertex  1.007753e-002  5.540167e-003  1.800000e-002
   endloop
 endfacet
 facet normal  0.000000e+000  0.000000e+000 -1.000000e+000
   outer loop
     vertex  5.181672e-003  1.562135e-003  1.800000e-002
     vertex  3.707588e-003  2.599111e-003  1.800000e-002
     vertex  6.081332e-003  3.489381e-003  1.800000e-002
   endloop
 endfacet
 facet normal  0.000000e+000  0.000000e+000 -1.000000e+000
   outer loop
     vertex -8.419481e-003  1.584928e-003  1.800000e-002
     vertex -5.688490e-003  8.663833e-004  1.800000e-002
     vertex -7.017493e-003 -1.311304e-003  1.800000e-002
   endloop
 endfacet
 facet normal  0.000000e+000 -0.000000e+000 -1.000000e+000
   outer loop
     vertex -7.496626e-003  4.636356e-003  1.800000e-002
     vertex -5.641364e-003  3.163055e-003  1.800000e-002
     vertex -8.419481e-003  1.584928e-003  1.800000e-002
   endloop
 endfacet
 facet normal  0.000000e+000  0.000000e+000 -1.000000e+000
   outer loop
     vertex  3.707588e-003  2.599111e-003  1.800000e-002
     vertex  1.925263e-003  3.465211e-003  1.800000e-002
     vertex  3.792460e-003  5.080858e-003  1.800000e-002
   endloop
 endfacet
 facet normal  0.000000e+000  0.000000e+000 -1.000000e+000
   outer loop
     vertex -7.496626e-003  4.636356e-003  1.800000e-002
     vertex -8.419481e-003  1.584928e-003  1.800000e-002
     vertex -1.069243e-002  4.233432e-003  1.800000e-002
   endloop
 endfacet
 facet normal -0.000000e+000  0.000000e+000 -1.000000e+000
   outer loop
     vertex -8.419481e-003  1.584928e-003  1.800000e-002
     vertex -1.140932e-002  1.441332e-003  1.800000e-002
     vertex -1.069243e-002  4.233432e-003  1.800000e-002
   endloop
 endfacet
 facet normal  0.000000e+000  0.000000e+000 -1.000000e+000
   outer loop
     vertex  9.572065e-003  8.265904e-004  1.800000e-002
     vertex  7.255489e-003  8.359232e-004  1.800000e-002
     vertex  8.707775e-003  3.089855e-003  1.800000e-002
   endloop
 endfacet
 facet normal  0.000000e+000  0.000000e+000 -1.000000e+000
   outer loop
     vertex  1.595080e-004  6.629938e-003  1.800000e-002
     vertex  2.374364e-003  7.528288e-003  1.800000e-002
     vertex  1.559950e-003  5.401780e-003  1.800000e-002
   endloop
 endfacet
 facet normal  0.000000e+000 -0.000000e+000 -1.000000e+000
   outer loop
     vertex -4.896462e-003  1.040551e-002  1.800000e-002
     vertex -2.991165e-003  9.198402e-003  1.800000e-002
     vertex -5.172861e-003  7.978346e-003  1.800000e-002
   endloop
 endfacet
 facet normal  0.000000e+000  0.000000e+000 -1.000000e+000
   outer loop
     vertex -9.303695e-003  6.759530e-003  1.800000e-002
     vertex -7.330376e-003  8.860902e-003  1.800000e-002
     vertex -6.899696e-003  6.775189e-003  1.800000e-002
   endloop
 endfacet
 facet normal  0.000000e+000 -0.000000e+000 -1.000000e+000
   outer loop
     vertex -3.471470e-003  6.741334e-003  1.800000e-002
     vertex -1.784594e-003  5.404607e-003  1.800000e-002
     vertex -3.708382e-003  4.222988e-003  1.800000e-002
   endloop
 endfacet
 facet normal  0.000000e+000  0.000000e+000 -1.000000e+000
   outer loop
     vertex -5.172861e-003  7.978346e-003  1.800000e-002
     vertex -7.330376e-003  8.860902e-003  1.800000e-002
     vertex -4.896462e-003  1.040551e-002  1.800000e-002
   endloop
 endfacet
 facet normal -0.000000e+000  0.000000e+000 -1.000000e+000
   outer loop
     vertex -5.373419e-003  5.733756e-003  1.800000e-002
     vertex -7.496626e-003  4.636356e-003  1.800000e-002
     vertex -6.899696e-003  6.775189e-003  1.800000e-002
   endloop
 endfacet
 facet normal  0.000000e+000 -0.000000e+000 -1.000000e+000
   outer loop
     vertex -5.172861e-003  7.978346e-003  1.800000e-002
     vertex -3.471470e-003  6.741334e-003  1.800000e-002
     vertex -5.373419e-003  5.733756e-003  1.800000e-002
   endloop
 endfacet
 facet normal  0.000000e+000  0.000000e+000 -1.000000e+000
   outer loop
     vertex -9.303695e-003  6.759530e-003  1.800000e-002
     vertex -6.899696e-003  6.775189e-003  1.800000e-002
     vertex -7.496626e-003  4.636356e-003  1.800000e-002
   endloop
 endfacet
 facet normal  0.000000e+000  0.000000e+000 -1.000000e+000
   outer loop
     vertex -3.327612e-005  4.426609e-003  1.800000e-002
     vertex -1.784594e-003  5.404607e-003  1.800000e-002
     vertex  1.595080e-004  6.629938e-003  1.800000e-002
   endloop
 endfacet
 facet normal  0.000000e+000  0.000000e+000 -1.000000e+000
   outer loop
     vertex -5.172861e-003  7.978346e-003  1.800000e-002
     vertex -5.373419e-003  5.733756e-003  1.800000e-002
     vertex -6.899696e-003  6.775189e-003  1.800000e-002
   endloop
 endfacet
 facet normal -0.000000e+000  0.000000e+000 -1.000000e+000
   outer loop
     vertex -5.172861e-003  7.978346e-003  1.800000e-002
     vertex -6.899696e-003  6.775189e-003  1.800000e-002
     vertex -7.330376e-003  8.860902e-003  1.800000e-002
   endloop
 endfacet
 facet normal  0.000000e+000  0.000000e+000 -1.000000e+000
   outer loop
     vertex  3.792460e-003  5.080858e-003  1.800000e-002
     vertex  1.559950e-003  5.401780e-003  1.800000e-002
     vertex  2.374364e-003  7.528288e-003  1.800000e-002
   endloop
 endfacet
 facet normal  0.000000e+000  0.000000e+000 -1.000000e+000
   outer loop
     vertex  5.042991e-003  7.813887e-003  1.800000e-002
     vertex  8.383139e-003  7.872292e-003  1.800000e-002
     vertex  6.128237e-003  5.837372e-003  1.800000e-002
   endloop
 endfacet
 facet normal -0.000000e+000  0.000000e+000 -1.000000e+000
   outer loop
     vertex -7.496626e-003  4.636356e-003  1.800000e-002
     vertex -1.069243e-002  4.233432e-003  1.800000e-002
     vertex -9.303695e-003  6.759530e-003  1.800000e-002
   endloop
 endfacet
 facet normal  0.000000e+000  0.000000e+000 -1.000000e+000
   outer loop
     vertex  3.792460e-003  5.080858e-003  1.800000e-002
     vertex  5.042991e-003  7.813887e-003  1.800000e-002
     vertex  6.128237e-003  5.837372e-003  1.800000e-002
   endloop
 endfacet
 facet normal  0.000000e+000 -0.000000e+000 -1.000000e+000
   outer loop
     vertex  2.178191e-004 -8.213897e-003  1.800000e-002
     vertex  7.220910e-004 -1.147731e-002  1.800000e-002
     vertex -1.832979e-003 -9.400417e-003  1.800000e-002
   endloop
 endfacet
 facet normal  0.000000e+000  0.000000e+000 -1.000000e+000
   outer loop
     vertex -3.327612e-005  4.426609e-003  1.800000e-002
     vertex  1.595080e-004  6.629938e-003  1.800000e-002
     vertex  1.559950e-003  5.401780e-003  1.800000e-002
   endloop
 endfacet
 facet normal  0.000000e+000  0.000000e+000 -1.000000e+000
   outer loop
     vertex -3.425528e-003 -8.185683e-003  1.800000e-002
     vertex -4.896462e-003 -1.040551e-002  1.800000e-002
     vertex -5.212844e-003 -8.200213e-003  1.800000e-002
   endloop
 endfacet
 facet normal  0.000000e+000  0.000000e+000 -1.000000e+000
   outer loop
     vertex -1.837135e-003 -4.779690e-003  1.800000e-002
     vertex -2.003800e-003 -2.581237e-003  1.800000e-002
     vertex -1.027244e-004 -3.925191e-003  1.800000e-002
   endloop
 endfacet
 facet normal  0.000000e+000 -0.000000e+000 -1.000000e+000
   outer loop
     vertex  7.802522e-003  5.100235e-003  1.800000e-002
     vertex  8.707775e-003  3.089855e-003  1.800000e-002
     vertex  6.081332e-003  3.489381e-003  1.800000e-002
   endloop
 endfacet
 facet normal -0.000000e+000  0.000000e+000 -1.000000e+000
   outer loop
     vertex -3.708382e-003  4.222988e-003  1.800000e-002
     vertex -5.641364e-003  3.163055e-003  1.800000e-002
     vertex -5.373419e-003  5.733756e-003  1.800000e-002
   endloop
 endfacet
 facet normal  0.000000e+000  0.000000e+000 -1.000000e+000
   outer loop
     vertex -3.708382e-003  4.222988e-003  1.800000e-002
     vertex -1.810804e-003  3.097921e-003  1.800000e-002
     vertex -3.594543e-003  1.137338e-003  1.800000e-002
   endloop
 endfacet
 facet normal -0.000000e+000  0.000000e+000 -1.000000e+000
   outer loop
     vertex -4.146932e-003 -1.284642e-003  1.800000e-002
     vertex -7.017493e-003 -1.311304e-003  1.800000e-002
     vertex -5.688490e-003  8.663833e-004  1.800000e-002
   endloop
 endfacet
 facet normal  0.000000e+000  0.000000e+000 -1.000000e+000
   outer loop
     vertex  1.333336e-005  4.014971e-004  1.800000e-002
     vertex -4.892465e-005 -1.700076e-003  1.800000e-002
     vertex -2.099699e-003 -3.882193e-004  1.800000e-002
   endloop
 endfacet
 facet normal -0.000000e+000  0.000000e+000 -1.000000e+000
   outer loop
     vertex  5.181672e-003  1.562135e-003  1.800000e-002
     vertex  3.593890e-003  4.448408e-004  1.800000e-002
     vertex  3.707588e-003  2.599111e-003  1.800000e-002
   endloop
 endfacet
 facet normal  0.000000e+000  0.000000e+000 -1.000000e+000
   outer loop
     vertex  1.885175e-003  1.428120e-003  1.800000e-002
     vertex  1.608976e-004  2.329148e-003  1.800000e-002
     vertex  1.925263e-003  3.465211e-003  1.800000e-002
   endloop
 endfacet
 facet normal  0.000000e+000  0.000000e+000 -1.000000e+000
   outer loop
     vertex -5.172861e-003  7.978346e-003  1.800000e-002
     vertex -2.991165e-003  9.198402e-003  1.800000e-002
     vertex -3.471470e-003  6.741334e-003  1.800000e-002
   endloop
 endfacet
 facet normal  0.000000e+000  0.000000e+000 -1.000000e+000
   outer loop
     vertex  3.575501e-003 -4.339216e-003  1.800000e-002
     vertex  2.007361e-003 -2.993015e-003  1.800000e-002
     vertex  4.177157e-003 -2.030597e-003  1.800000e-002
   endloop
 endfacet
 facet normal  0.000000e+000  0.000000e+000 -1.000000e+000
   outer loop
     vertex  5.427756e-003 -1.712437e-004  1.800000e-002
     vertex  3.593890e-003  4.448408e-004  1.800000e-002
     vertex  5.181672e-003  1.562135e-003  1.800000e-002
   endloop
 endfacet
 facet normal  0.000000e+000  0.000000e+000 -1.000000e+000
   outer loop
     vertex -5.503218e-003 -4.680103e-003  1.800000e-002
     vertex -3.777516e-003 -3.456787e-003  1.800000e-002
     vertex -3.832603e-003 -6.118390e-003  1.800000e-002
   endloop
 endfacet
 facet normal  0.000000e+000 -0.000000e+000 -1.000000e+000
   outer loop
     vertex  1.559950e-003  5.401780e-003  1.800000e-002
     vertex  1.925263e-003  3.465211e-003  1.800000e-002
     vertex -3.327612e-005  4.426609e-003  1.800000e-002
   endloop
 endfacet
 facet normal  0.000000e+000  0.000000e+000 -1.000000e+000
   outer loop
     vertex -5.688490e-003  8.663833e-004  1.800000e-002
     vertex -5.641364e-003  3.163055e-003  1.800000e-002
     vertex -3.594543e-003  1.137338e-003  1.800000e-002
   endloop
 endfacet
 facet normal  0.000000e+000 -0.000000e+000 -1.000000e+000
   outer loop
     vertex -1.579725e-003  1.276249e-003  1.800000e-002
     vertex  1.333336e-005  4.014971e-004  1.800000e-002
     vertex -2.099699e-003 -3.882193e-004  1.800000e-002
   endloop
 endfacet
endsolid
