solid Visualization Toolkit generated SLA File
 facet normal 0 0 1
  outer loop
   vertex 0.0056652240455150604 -0.046657316386699677 0
   vertex -0.016666429117321968 -0.043945763260126114 0
   vertex -0.0056652240455150604 -0.046657316386699677 0
  endloop
 endfacet
 facet normal -0 0 1
  outer loop
   vertex -0.04563426598906517 0.011247836053371429 0
   vertex -0.046999998390674591 4.7500224636036974e-17 0
   vertex -0.04563426598906517 -0.011247836053371429 0
  endloop
 endfacet
 facet normal -0 0 1
  outer loop
   vertex 0.016666429117321968 -0.043945763260126114 0
   vertex -0.016666429117321968 -0.043945763260126114 0
   vertex 0.0056652240455150604 -0.046657316386699677 0
  endloop
 endfacet
 facet normal -0 0 1
  outer loop
   vertex -0.041616432368755341 0.021841989830136299 0
   vertex -0.04563426598906517 -0.011247836053371429 0
   vertex -0.041616432368755341 -0.021841989830136299 0
  endloop
 endfacet
 facet normal -0 0 1
  outer loop
   vertex -0.041616432368755341 0.021841989830136299 0
   vertex -0.04563426598906517 0.011247836053371429 0
   vertex -0.04563426598906517 -0.011247836053371429 0
  endloop
 endfacet
 facet normal 0 0 1
  outer loop
   vertex 0.026699043810367584 -0.038680240511894226 0
   vertex -0.016666429117321968 -0.043945763260126114 0
   vertex 0.016666429117321968 -0.043945763260126114 0
  endloop
 endfacet
 facet normal -0 0 1
  outer loop
   vertex -0.035180006176233292 0.031166765838861465 0
   vertex -0.041616432368755341 -0.021841989830136299 0
   vertex -0.035180006176233292 -0.031166765838861465 0
  endloop
 endfacet
 facet normal -0 0 1
  outer loop
   vertex -0.035180006176233292 0.031166765838861465 0
   vertex -0.041616432368755341 0.021841989830136299 0
   vertex -0.041616432368755341 -0.021841989830136299 0
  endloop
 endfacet
 facet normal -0 0 1
  outer loop
   vertex 0.041616432368755341 -0.021841989830136299 0
   vertex -0.035180006176233292 -0.031166765838861465 0
   vertex -0.026699043810367584 -0.038680240511894226 0
  endloop
 endfacet
 facet normal -0 0 1
  outer loop
   vertex 0.041616432368755341 -0.021841989830136299 0
   vertex -0.026699043810367584 -0.038680240511894226 0
   vertex -0.016666429117321968 -0.043945763260126114 0
  endloop
 endfacet
 facet normal 0 0 1
  outer loop
   vertex 0.041616432368755341 -0.021841989830136299 0
   vertex 0.026699043810367584 -0.038680240511894226 0
   vertex 0.035180006176233292 -0.031166765838861465 0
  endloop
 endfacet
 facet normal 0 0 1
  outer loop
   vertex 0.041616432368755341 -0.021841989830136299 0
   vertex -0.016666429117321968 -0.043945763260126114 0
   vertex 0.026699043810367584 -0.038680240511894226 0
  endloop
 endfacet
 facet normal 0 0 1
  outer loop
   vertex 0.046999998390674591 0 0
   vertex 0.041616432368755341 -0.021841989830136299 0
   vertex 0.04563426598906517 -0.011247836053371429 0
  endloop
 endfacet
 facet normal -0 0 1
  outer loop
   vertex 0.0056652240455150604 0.046657316386699677 0
   vertex -0.0056652240455150604 0.046657316386699677 0
   vertex -0.016666429117321968 0.043945763260126114 0
  endloop
 endfacet
 facet normal 0 0 1
  outer loop
   vertex 0.016666429117321968 0.043945763260126114 0
   vertex 0.0056652240455150604 0.046657316386699677 0
   vertex -0.016666429117321968 0.043945763260126114 0
  endloop
 endfacet
 facet normal 0 0 1
  outer loop
   vertex 0.041616432368755341 0.021841989830136299 0
   vertex 0.046999998390674591 0 0
   vertex 0.04563426598906517 0.011247836053371429 0
  endloop
 endfacet
 facet normal 0 0 1
  outer loop
   vertex 0.041616432368755341 0.021841989830136299 0
   vertex -0.016666429117321968 0.043945763260126114 0
   vertex -0.026699043810367584 0.038680240511894226 0
  endloop
 endfacet
 facet normal 0 0 1
  outer loop
   vertex 0.041616432368755341 0.021841989830136299 0
   vertex -0.026699043810367584 0.038680240511894226 0
   vertex -0.035180006176233292 0.031166765838861465 0
  endloop
 endfacet
 facet normal 0 0 1
  outer loop
   vertex 0.041616432368755341 0.021841989830136299 0
   vertex -0.035180006176233292 0.031166765838861465 0
   vertex -0.035180006176233292 -0.031166765838861465 0
  endloop
 endfacet
 facet normal 0 0 1
  outer loop
   vertex 0.041616432368755341 0.021841989830136299 0
   vertex -0.035180006176233292 -0.031166765838861465 0
   vertex 0.041616432368755341 -0.021841989830136299 0
  endloop
 endfacet
 facet normal 0 0 1
  outer loop
   vertex 0.041616432368755341 0.021841989830136299 0
   vertex 0.041616432368755341 -0.021841989830136299 0
   vertex 0.046999998390674591 0 0
  endloop
 endfacet
 facet normal 0 0 1
  outer loop
   vertex 0.026699043810367584 0.038680240511894226 0
   vertex 0.016666429117321968 0.043945763260126114 0
   vertex -0.016666429117321968 0.043945763260126114 0
  endloop
 endfacet
 facet normal 0 0 1
  outer loop
   vertex 0.026699043810367584 0.038680240511894226 0
   vertex -0.016666429117321968 0.043945763260126114 0
   vertex 0.041616432368755341 0.021841989830136299 0
  endloop
 endfacet
 facet normal 0 0 1
  outer loop
   vertex 0.035180006176233292 0.031166765838861465 0
   vertex 0.026699043810367584 0.038680240511894226 0
   vertex 0.041616432368755341 0.021841989830136299 0
  endloop
 endfacet
endsolid
