solid Visualization Toolkit generated SLA File
 facet normal 0 0 1
  outer loop
   vertex 0.019999999552965164 0.019999999552965164 0.039999999105930328
   vertex -0.019999999552965164 -0.019999999552965164 0.039999999105930328
   vertex 0.019999999552965164 -0.019999999552965164 0.039999999105930328
  endloop
 endfacet
 facet normal -0 0 1
  outer loop
   vertex 0.019999999552965164 0.019999999552965164 0.039999999105930328
   vertex -0.019999999552965164 0.019999999552965164 0.039999999105930328
   vertex -0.019999999552965164 -0.019999999552965164 0.039999999105930328
  endloop
 endfacet
endsolid
